<svg width="20" height="21" viewBox="0 0 20 21" fill="none" xmlns="http://www.w3.org/2000/svg">
<path fill-rule="evenodd" clip-rule="evenodd" d="M5.83333 2.99805C4.33756 2.99805 3.125 4.21061 3.125 5.70638V15.7064C3.125 17.2021 4.33756 18.4147 5.83333 18.4147H10C10.3452 18.4147 10.625 18.6945 10.625 19.0397C10.625 19.3849 10.3452 19.6647 10 19.6647H5.83333C3.64721 19.6647 1.875 17.8925 1.875 15.7064V5.70638C1.875 3.52026 3.64721 1.74805 5.83333 1.74805H10.8861C11.5662 1.74805 12.2112 2.05014 12.6466 2.57262L15.9272 6.50937C16.2704 6.92122 16.4583 7.44036 16.4583 7.97646V10.7064C16.4583 11.0515 16.1785 11.3314 15.8333 11.3314C15.4882 11.3314 15.2083 11.0515 15.2083 10.7064V7.97646C15.2083 7.73278 15.1229 7.49681 14.9669 7.30961L11.6863 3.37286C11.4883 3.13536 11.1952 2.99805 10.8861 2.99805H5.83333Z" fill="white"/>
<path fill-rule="evenodd" clip-rule="evenodd" d="M18.958 16.5398C18.958 16.885 18.6782 17.1648 18.333 17.1648H13.333C12.9878 17.1648 12.708 16.885 12.708 16.5398C12.708 16.1946 12.9878 15.9148 13.333 15.9148H18.333C18.6782 15.9148 18.958 16.1946 18.958 16.5398Z" fill="white"/>
<path fill-rule="evenodd" clip-rule="evenodd" d="M15.833 19.6648C15.4878 19.6648 15.208 19.385 15.208 19.0398V14.0398C15.208 13.6946 15.4878 13.4148 15.833 13.4148C16.1782 13.4148 16.458 13.6946 16.458 14.0398V19.0398C16.458 19.385 16.1782 19.6648 15.833 19.6648Z" fill="white"/>
<path fill-rule="evenodd" clip-rule="evenodd" d="M11.667 2.16479C12.0122 2.16479 12.292 2.44462 12.292 2.78979V5.70646C12.292 6.28176 12.7583 6.74813 13.3337 6.74813H15.417C15.7622 6.74813 16.042 7.02795 16.042 7.37313C16.042 7.7183 15.7622 7.99813 15.417 7.99813H13.3337C12.068 7.99813 11.042 6.97211 11.042 5.70646V2.78979C11.042 2.44462 11.3218 2.16479 11.667 2.16479Z" fill="white"/>
</svg>
