<svg width="19" height="20" viewBox="0 0 19 20" fill="none" xmlns="http://www.w3.org/2000/svg">
<g clip-path="url(#clip0_90_57)">
<path d="M7.71875 18.3125H4.15625C3.50162 18.3125 2.96875 17.7799 2.96875 17.125V5.39264C2.96875 5.08127 3.09574 4.7754 3.31723 4.55361L5.83487 2.03598C6.05637 1.81448 6.36194 1.6875 6.67389 1.6875H14.8438C15.4984 1.6875 16.0313 2.22008 16.0313 2.875V7.625C16.0313 7.9529 16.2968 8.21875 16.625 8.21875C16.9532 8.21875 17.2188 7.9529 17.2188 7.625V2.875C17.2188 1.56544 16.1536 0.5 14.8438 0.5H6.67389C6.0494 0.5 5.4371 0.753965 4.99527 1.19638L2.47763 3.71402C2.03521 4.15701 1.78125 4.76874 1.78125 5.39264V17.125C1.78125 18.4346 2.84641 19.5 4.15625 19.5H7.71875C8.04693 19.5 8.3125 19.2341 8.3125 18.9062C8.3125 18.5784 8.04693 18.3125 7.71875 18.3125Z" fill="#0F89CB"/>
<path d="M18.3043 11.2473L17.4647 10.4077C16.5671 9.50952 15.0021 9.51068 14.1063 10.4077L9.90772 14.606C9.45893 15.0545 9.21191 15.6511 9.21191 16.2855C9.21191 16.9198 9.45893 17.5162 9.90772 17.9647L10.7473 18.8043C11.1961 19.253 11.7922 19.5001 12.4265 19.5001C13.0614 19.5001 13.6575 19.253 14.1057 18.8043L16.2053 16.7053C16.8999 16.0109 16.8999 14.8805 16.2053 14.1862C15.5327 13.5127 14.3579 13.5138 13.6865 14.1862L12.0067 15.8656C11.7748 16.0973 11.7748 16.4733 12.0067 16.7052C12.2386 16.9372 12.6144 16.9372 12.8463 16.7052L14.5267 15.0255C14.7505 14.8022 15.1407 14.8008 15.3657 15.0258C15.597 15.2574 15.597 15.634 15.3657 15.8656L13.2661 17.9647C12.8173 18.4134 12.0357 18.4134 11.5869 17.9647L10.7473 17.1251C10.5229 16.9007 10.3994 16.6026 10.3994 16.2855C10.3994 15.9683 10.5229 15.67 10.7473 15.4456L14.9459 11.2473C15.3947 10.7985 16.1763 10.7985 16.6251 11.2473L17.4647 12.0869C17.6891 12.3113 17.8126 12.6093 17.8126 12.9265C17.8126 13.2439 17.6891 13.542 17.4647 13.7664C17.2328 13.998 17.2328 14.374 17.4647 14.606C17.6966 14.8379 18.0724 14.8379 18.3043 14.606C18.7531 14.1575 19.0001 13.5611 19.0001 12.9265C19.0001 12.2921 18.7531 11.6958 18.3043 11.2473Z" fill="#0F89CB"/>
<path d="M13.0625 6.4375C13.0625 6.1096 12.7969 5.84375 12.4688 5.84375H6.53125C6.20307 5.84375 5.9375 6.1096 5.9375 6.4375C5.9375 6.7654 6.20307 7.03125 6.53125 7.03125H12.4688C12.7969 7.03125 13.0625 6.7654 13.0625 6.4375Z" fill="#0F89CB"/>
<path d="M6.53125 8.8125C6.20307 8.8125 5.9375 9.07835 5.9375 9.40625C5.9375 9.73415 6.20307 10 6.53125 10H9.5C9.82818 10 10.0938 9.73415 10.0938 9.40625C10.0938 9.07835 9.82818 8.8125 9.5 8.8125H6.53125Z" fill="#0F89CB"/>
</g>
<defs>
<clipPath id="clip0_90_57">
<rect width="19" height="19" fill="white" transform="translate(0 0.5)"/>
</clipPath>
</defs>
</svg>
