<svg width="65" height="65" viewBox="0 0 65 65" fill="none" xmlns="http://www.w3.org/2000/svg">
<circle cx="32.5" cy="32.5" r="25.3906" fill="white" fill-opacity="0.35"/>
<circle cx="32.5" cy="32.5" r="32.5" fill="white" fill-opacity="0.2"/>
<path d="M39.567 38.7764C39.8913 38.7764 40.1763 38.7764 40.4599 38.7764C40.5021 38.7764 40.5617 38.7244 40.5762 38.6878C40.5864 38.6302 40.5864 38.5716 40.5762 38.514V23.6575C40.5762 23.6114 40.5762 23.5641 40.5762 23.518C40.5615 23.4483 40.5754 23.3766 40.6159 23.314C40.6564 23.2514 40.7212 23.2014 40.8002 23.1717C40.885 23.1395 40.9797 23.1284 41.0723 23.1397C41.1649 23.1511 41.2514 23.1844 41.3208 23.2355C41.8617 23.6078 42.4041 23.9766 42.9465 24.3477C43.8452 24.9611 44.741 25.5769 45.644 26.1856C45.7321 26.2391 45.8027 26.3093 45.8498 26.39C45.897 26.4708 45.9192 26.5596 45.9145 26.6489C45.9087 30.6106 45.9087 34.5724 45.9145 38.5341C45.9145 38.7776 45.9145 38.7776 46.2184 38.7776H46.3639C46.6736 38.7835 46.8292 38.9052 46.8292 39.1546C46.8292 39.8062 46.8292 40.4575 46.8292 41.1083C46.8355 41.158 46.8284 41.2082 46.8082 41.2555C46.7881 41.3027 46.7554 41.3457 46.7126 41.3816C46.6697 41.4174 46.6177 41.4452 46.5602 41.4629C46.5027 41.4806 46.4412 41.4879 46.3799 41.4842C46.3159 41.4842 46.2519 41.4842 46.1879 41.4842H19.8484C19.7626 41.4842 19.6753 41.4842 19.591 41.4842C19.5342 41.4853 19.4778 41.4767 19.4254 41.4591C19.373 41.4414 19.3257 41.4151 19.2865 41.3817C19.2473 41.3483 19.2172 41.3086 19.198 41.2652C19.1788 41.2218 19.171 41.1756 19.1751 41.1296C19.1751 40.4606 19.1751 39.7909 19.1751 39.1203C19.1705 39.0728 19.1786 39.0251 19.1989 38.9804C19.2192 38.9356 19.2512 38.895 19.2927 38.8613C19.3341 38.8276 19.3841 38.8016 19.4391 38.7851C19.4941 38.7686 19.5529 38.762 19.6113 38.7658C20.0985 38.748 20.0985 38.748 20.0985 38.3557C20.0985 34.453 20.0985 30.5496 20.0985 26.6453C20.0914 26.5552 20.1115 26.465 20.1572 26.3826C20.2028 26.3002 20.2725 26.2281 20.3602 26.1726C21.795 25.2097 23.2284 24.2362 24.6602 23.2521C24.7295 23.197 24.8172 23.1597 24.9123 23.1448C25.0074 23.1299 25.1059 23.138 25.1954 23.1682C25.4004 23.2344 25.4397 23.3821 25.4295 23.544C25.4295 23.5736 25.4295 23.6019 25.4295 23.6315V34.4518C25.4295 35.824 25.4295 37.1974 25.4295 38.5708C25.4295 38.741 25.492 38.7941 25.6956 38.78C25.8893 38.7705 26.0836 38.7705 26.2773 38.78C26.4038 38.78 26.4649 38.748 26.4518 38.6393C26.4518 38.5932 26.4518 38.5471 26.4518 38.4998V19.7076C26.4518 19.6615 26.4518 19.6154 26.4518 19.5681C26.4518 19.2998 26.6117 19.1733 26.9418 19.1733H39.0741C39.4318 19.1733 39.5743 19.2986 39.5743 19.6118V38.7764H39.567ZM38.7149 38.7764V38.5731C38.7149 32.4083 38.7149 26.2431 38.7149 20.0775C38.7149 19.9097 38.6596 19.8636 38.4531 19.8636C34.8177 19.8683 31.1822 19.8683 27.5468 19.8636C27.3359 19.8636 27.2879 19.9144 27.2879 20.0787C27.2879 26.2388 27.2879 32.3989 27.2879 38.5589C27.2879 38.735 27.3417 38.7823 27.5613 38.7811C31.189 38.7756 34.8172 38.7756 38.4459 38.7811L38.7149 38.7764ZM24.5701 24.2532C24.541 24.2642 24.5128 24.2769 24.4857 24.291C23.35 25.0687 22.2085 25.844 21.08 26.6288C21.0035 26.6919 20.9598 26.7766 20.9579 26.8652C20.9521 30.7694 20.9492 34.6728 20.9492 38.5755C20.9492 38.7386 21.0088 38.7811 21.2037 38.78C22.2492 38.7729 23.2933 38.78 24.3389 38.78C24.4159 38.78 24.4916 38.78 24.5788 38.7717L24.5701 24.2532ZM41.4386 38.7776H44.7701C45.0609 38.7776 45.0609 38.7776 45.0609 38.5412C45.0609 34.6669 45.0609 30.7926 45.0609 26.9184C45.0653 26.8501 45.0489 26.782 45.0131 26.7202C44.9774 26.6583 44.9233 26.6046 44.8559 26.5638C43.963 25.9622 43.0789 25.3535 42.1904 24.7472C41.949 24.5817 41.7047 24.4186 41.4298 24.2343L41.4386 38.7776ZM33.0043 39.4714H20.353C20.29 39.4618 20.2254 39.4618 20.1625 39.4714C20.1057 39.4915 20.0287 39.5435 20.0272 39.5825C20.0175 39.9426 20.0175 40.303 20.0272 40.6639C20.0272 40.7029 20.1072 40.7561 20.1625 40.7738C20.2327 40.7834 20.3045 40.7834 20.3748 40.7738H45.6324C45.6896 40.7715 45.7468 40.7715 45.804 40.7738C45.9494 40.7856 45.9916 40.7372 45.9887 40.6237C45.9887 40.3212 45.9887 40.0186 45.9887 39.716C45.9887 39.4619 45.9887 39.4619 45.6775 39.4619L33.0043 39.4714Z" fill="white"/>
<path d="M32.3699 22.6765C32.3699 23.1422 32.3699 23.6079 32.3699 24.0735C32.3699 24.3241 32.2244 24.46 31.9191 24.4624C30.9496 24.4703 29.9763 24.4703 28.9991 24.4624C28.6952 24.4624 28.5425 24.3194 28.541 24.0724C28.541 23.1347 28.541 22.1979 28.541 21.2618C28.541 21.0029 28.6981 20.8788 29.0209 20.8788C29.9807 20.8788 30.9399 20.8788 31.8987 20.8788C32.2274 20.8788 32.3699 20.997 32.3699 21.263C32.3713 21.731 32.3699 22.2038 32.3699 22.6765ZM31.4974 23.7485C31.5079 23.7296 31.5157 23.7098 31.5206 23.6894C31.5206 23.0264 31.5206 22.3633 31.5206 21.7003C31.5206 21.5821 31.4406 21.575 31.3287 21.575C30.747 21.575 30.1653 21.575 29.5837 21.575C29.4266 21.575 29.3903 21.6187 29.3917 21.7369C29.3917 22.2546 29.3917 22.7723 29.3917 23.2899V23.7402L31.4974 23.7485Z" fill="white"/>
<path d="M33.641 22.6635C33.641 22.1978 33.641 21.7322 33.641 21.2665C33.641 20.9899 33.7864 20.8729 34.1238 20.8729C35.0748 20.8729 36.0263 20.8729 36.9783 20.8729C37.3157 20.8729 37.4698 20.9911 37.4713 21.2641C37.4713 22.1947 37.4713 23.1252 37.4713 24.0558C37.4713 24.3146 37.3186 24.4553 37.0045 24.4576C36.0351 24.4647 35.069 24.4647 34.1063 24.4576C33.782 24.4576 33.6439 24.3217 33.6424 24.0593C33.6395 23.5937 33.641 23.128 33.641 22.6635ZM36.5842 23.7402C36.5973 23.719 36.6104 23.7095 36.6104 23.7C36.6104 23.0264 36.6104 22.3527 36.6191 21.679C36.6191 21.5608 36.5304 21.5667 36.433 21.5667C35.8513 21.5667 35.2697 21.5667 34.6967 21.5667C34.5339 21.5667 34.4888 21.6093 34.4902 21.7369C34.4975 22.3586 34.4902 22.9803 34.4902 23.6019C34.4929 23.649 34.4988 23.696 34.5077 23.7426L36.5842 23.7402Z" fill="white"/>
<path d="M32.3694 31.5278C32.3694 31.9935 32.3694 32.4579 32.3694 32.9236C32.3694 33.1978 32.224 33.316 31.8851 33.316H29.0291C28.6976 33.316 28.5405 33.1919 28.5391 32.9224C28.5391 31.9982 28.5391 31.0735 28.5391 30.1485C28.5391 29.8578 28.6845 29.736 29.0524 29.736C29.9898 29.736 30.9273 29.736 31.8648 29.736C32.2269 29.736 32.3679 29.8542 32.3694 30.1497V31.5278ZM29.3985 31.5443C29.3985 31.8516 29.3985 32.1601 29.3985 32.4686C29.3985 32.575 29.4247 32.627 29.5744 32.6246C30.1677 32.6246 30.7625 32.6246 31.3558 32.6246C31.4736 32.6246 31.5216 32.5939 31.5201 32.4946C31.5201 31.8552 31.5201 31.2158 31.5201 30.5764C31.5201 30.4676 31.4692 30.4369 31.3427 30.4381C30.761 30.4381 30.1692 30.4381 29.5832 30.4381C29.4377 30.4381 29.3941 30.47 29.397 30.5858C29.4043 30.9049 29.3985 31.224 29.3985 31.5408V31.5443Z" fill="white"/>
<path d="M33.6413 31.5278C33.6413 31.0633 33.6413 30.5976 33.6413 30.132C33.6413 29.8601 33.7867 29.7372 34.1241 29.736C35.0751 29.736 36.0266 29.736 36.9786 29.736C37.3116 29.736 37.4701 29.8613 37.4701 30.1308C37.4701 31.0668 37.4701 32.0033 37.4701 32.9402C37.4775 32.9914 37.4704 33.0433 37.4494 33.092C37.4284 33.1406 37.394 33.1847 37.3489 33.221C37.3037 33.2572 37.249 33.2846 37.1889 33.3011C37.1288 33.3175 37.0648 33.3227 37.0019 33.316C36.0324 33.316 35.0664 33.316 34.1037 33.316C33.7925 33.316 33.6427 33.1919 33.6413 32.9413C33.6398 32.471 33.6413 31.9994 33.6413 31.5278ZM34.4934 31.5183C34.4934 31.8386 34.4934 32.1577 34.4934 32.4769C34.4934 32.575 34.521 32.6258 34.6592 32.6246C35.2598 32.6246 35.8589 32.6246 36.4595 32.6246C36.5802 32.6246 36.6223 32.5903 36.6209 32.4934C36.6209 31.854 36.6209 31.2158 36.6209 30.5764C36.6209 30.4676 36.5714 30.4369 36.4449 30.4381C35.8516 30.4381 35.2583 30.4381 34.665 30.4381C34.5341 30.4381 34.4905 30.4747 34.492 30.5787C34.4978 30.8919 34.4949 31.2051 34.4934 31.5183Z" fill="white"/>
<path d="M32.3694 35.9635V37.3428C32.3694 37.6311 32.224 37.7541 31.8837 37.7552C30.9307 37.7552 29.9787 37.7552 29.0277 37.7552C28.6961 37.7552 28.5405 37.6252 28.5391 37.3558C28.5391 36.426 28.5391 35.4951 28.5391 34.5629C28.5391 34.2982 28.6845 34.1788 29.0102 34.1788H31.9098C32.2269 34.1788 32.3665 34.297 32.3679 34.5499C32.3708 35.0215 32.3694 35.4931 32.3694 35.9635ZM29.4101 37.0437H31.5012V34.8749H29.4101V37.0437Z" fill="white"/>
<path d="M33.6413 35.9599C33.6413 35.5002 33.6413 35.0416 33.6413 34.5818C33.6413 34.2852 33.7707 34.1788 34.127 34.1788H36.983C37.3218 34.1788 37.4701 34.297 37.4716 34.5676C37.4716 35.4974 37.4716 36.428 37.4716 37.3593C37.4716 37.6205 37.3174 37.7529 36.999 37.7541C36.0295 37.7588 35.0635 37.7588 34.1008 37.7541C33.7896 37.7541 33.6427 37.6241 33.6413 37.3735C33.6398 36.9031 33.6413 36.4315 33.6413 35.9599ZM36.6049 37.0449V34.8785H34.5065V37.0449H36.6049Z" fill="white"/>
<path d="M33.6413 27.0956C33.6413 26.63 33.6413 26.1655 33.6413 25.6998C33.6413 25.4244 33.7867 25.3062 34.1226 25.3062C35.0756 25.3062 36.0276 25.3062 36.9786 25.3062C37.316 25.3062 37.4701 25.4244 37.4701 25.6975C37.4701 26.6335 37.4701 27.57 37.4701 28.5068C37.4701 28.7562 37.3116 28.8803 37.0033 28.8803C36.0339 28.8803 35.0678 28.8803 34.1052 28.8803C33.7823 28.8803 33.6427 28.7621 33.6413 28.4915C33.6398 28.027 33.6413 27.5613 33.6413 27.0956ZM34.4949 26.0118C34.4949 26.721 34.4949 27.4018 34.4949 28.0873C34.4949 28.2055 34.5749 28.2055 34.6752 28.2055C35.1405 28.2055 35.6059 28.2055 36.0712 28.2055H36.6078V26.0118H34.4949Z" fill="white"/>
<path d="M32.3694 27.0921C32.3694 27.5578 32.3694 28.0234 32.3694 28.4879C32.3694 28.7669 32.224 28.8803 31.888 28.8815H29.032C28.6947 28.8815 28.5405 28.7633 28.5391 28.4927C28.5391 27.5629 28.5391 26.6323 28.5391 25.701C28.5391 25.428 28.6845 25.3074 29.0277 25.3062C29.9874 25.3062 30.9467 25.3062 31.9055 25.3062C32.2196 25.3062 32.3665 25.4244 32.3679 25.6785C32.3708 26.1501 32.3694 26.6205 32.3694 27.0921ZM31.5041 26.0166H29.413V28.1901H31.5041V26.0166Z" fill="white"/>
<path d="M22.7578 31.4852C22.5367 31.4852 22.3215 31.4852 22.0947 31.4852C21.9862 31.482 21.8833 31.4451 21.8073 31.3822C21.7312 31.3193 21.6877 31.2351 21.6856 31.1469C21.6836 31.0587 21.7232 30.9732 21.7963 30.9079C21.8694 30.8427 21.9704 30.8027 22.0787 30.7962C22.5353 30.7891 22.9914 30.7891 23.447 30.7962C23.5552 30.8013 23.6568 30.8399 23.7311 30.9039C23.8054 30.968 23.8468 31.0527 23.8468 31.1407C23.8468 31.2287 23.8054 31.3135 23.7311 31.3775C23.6568 31.4415 23.5552 31.4801 23.447 31.4852C23.2144 31.49 22.9861 31.4852 22.7578 31.4852Z" fill="white"/>
<path d="M22.7752 33.9247C22.9905 33.9247 23.2115 33.9247 23.418 33.9247C23.475 33.9226 23.5319 33.93 23.5852 33.9465C23.6386 33.963 23.6872 33.9881 23.7281 34.0205C23.769 34.0528 23.8012 34.0916 23.8229 34.1345C23.8446 34.1774 23.8553 34.2235 23.8542 34.2698C23.8583 34.3156 23.8506 34.3616 23.8315 34.4049C23.8125 34.4481 23.7827 34.4877 23.7438 34.521C23.705 34.5544 23.658 34.5808 23.6059 34.5986C23.5538 34.6164 23.4978 34.6252 23.4413 34.6244C22.9846 34.6362 22.528 34.6362 22.0714 34.6244C21.958 34.623 21.85 34.585 21.771 34.5188C21.6921 34.4527 21.6487 34.3637 21.6504 34.2716C21.6522 34.1794 21.6989 34.0916 21.7803 34.0274C21.8617 33.9633 21.9711 33.928 22.0845 33.9294C22.3128 33.9212 22.5411 33.9294 22.7694 33.9294L22.7752 33.9247Z" fill="white"/>
<path d="M22.7578 28.3496C22.5368 28.3496 22.3216 28.3496 22.0947 28.3496C21.9874 28.348 21.885 28.3132 21.808 28.2525C21.731 28.1917 21.6854 28.1095 21.6802 28.0224C21.675 27.9353 21.7107 27.8498 21.7801 27.7833C21.8495 27.7168 21.9474 27.6742 22.054 27.6641C22.531 27.6523 23.0094 27.6523 23.4864 27.6641C23.5399 27.6665 23.5924 27.6776 23.6405 27.6969C23.6886 27.7162 23.7313 27.7433 23.7661 27.7765C23.801 27.8096 23.8271 27.8482 23.843 27.8899C23.8589 27.9315 23.8642 27.9753 23.8586 28.0187C23.8583 28.0627 23.8472 28.1062 23.826 28.1466C23.8049 28.1871 23.7741 28.2238 23.7354 28.2545C23.6968 28.2853 23.651 28.3095 23.6008 28.3259C23.5505 28.3422 23.4968 28.3503 23.4427 28.3496C23.2144 28.3556 22.9861 28.3496 22.7578 28.3496Z" fill="white"/>
<path d="M22.7894 37.0579C23.0046 37.0579 23.2183 37.052 23.4321 37.0579C23.4876 37.0571 23.5427 37.0653 23.5943 37.082C23.6458 37.0987 23.6928 37.1235 23.7324 37.1551C23.7721 37.1867 23.8036 37.2243 23.8252 37.2659C23.8468 37.3074 23.858 37.352 23.8582 37.3971C23.8626 37.4425 23.8554 37.4882 23.837 37.5311C23.8186 37.5741 23.7894 37.6136 23.7512 37.6469C23.7131 37.6802 23.6668 37.7068 23.6154 37.7248C23.564 37.7429 23.5085 37.752 23.4525 37.7517C22.9891 37.7627 22.5257 37.7627 22.0623 37.7517C22.0074 37.7518 21.9531 37.7427 21.9027 37.7251C21.8524 37.7075 21.807 37.6816 21.7694 37.6492C21.7318 37.6167 21.7027 37.5783 21.6841 37.5364C21.6654 37.4945 21.6575 37.4499 21.6609 37.4054C21.6578 37.3172 21.6975 37.2315 21.7715 37.1669C21.8456 37.1023 21.9479 37.064 22.0565 37.0603H22.1001L22.7894 37.0579Z" fill="white"/>
<path d="M43.2269 31.4852C43.0132 31.4852 42.7994 31.4852 42.5856 31.4852C42.5301 31.4876 42.4746 31.4809 42.4224 31.4655C42.3701 31.4501 42.3222 31.4263 42.2815 31.3955C42.2408 31.3648 42.2081 31.3277 42.1854 31.2864C42.1627 31.2452 42.1505 31.2007 42.1494 31.1555C42.1455 31.1092 42.1536 31.0628 42.1731 31.0192C42.1926 30.9756 42.2232 30.9359 42.2628 30.9025C42.3024 30.8691 42.3501 30.8428 42.403 30.8253C42.4558 30.8078 42.5126 30.7995 42.5696 30.8009C43.0195 30.7938 43.4688 30.7938 43.9177 30.8009C43.9754 30.7986 44.0332 30.8059 44.0873 30.8224C44.1415 30.8388 44.191 30.8641 44.2327 30.8967C44.2744 30.9292 44.3075 30.9683 44.3299 31.0117C44.3524 31.055 44.3637 31.1016 44.3632 31.1486C44.3627 31.1956 44.3504 31.242 44.3271 31.285C44.3037 31.328 44.2698 31.3667 44.2274 31.3986C44.185 31.4306 44.135 31.4552 44.0805 31.4709C44.026 31.4866 43.9681 31.4931 43.9104 31.49C43.6835 31.4888 43.4552 31.4852 43.2269 31.4852Z" fill="white"/>
<path d="M43.247 34.6267C43.0332 34.6267 42.818 34.6267 42.6042 34.6267C42.5451 34.6299 42.4859 34.623 42.4303 34.6064C42.3746 34.5899 42.3238 34.5642 42.2812 34.5308C42.2385 34.4974 42.2048 34.4572 42.1823 34.4127C42.1598 34.3681 42.149 34.3203 42.1505 34.2722C42.1505 34.0665 42.3279 33.9306 42.6159 33.9282C43.0361 33.9282 43.4578 33.9282 43.8781 33.9282C44.1689 33.9282 44.3434 34.0677 44.342 34.271C44.342 34.3188 44.3302 34.3661 44.3072 34.41C44.2842 34.454 44.2505 34.4937 44.2081 34.5268C44.1657 34.56 44.1156 34.5858 44.0606 34.6027C44.0056 34.6197 43.947 34.6275 43.8883 34.6255C43.6745 34.6326 43.4608 34.6267 43.247 34.6267Z" fill="white"/>
<path d="M43.2363 28.3497C43.0152 28.3497 42.8 28.3497 42.5732 28.3497C42.5178 28.3508 42.4627 28.3428 42.4112 28.3262C42.3597 28.3096 42.3128 28.2847 42.2735 28.253C42.2341 28.2213 42.203 28.1835 42.182 28.1418C42.1611 28.1002 42.1507 28.0555 42.1515 28.0104C42.1475 27.9666 42.1546 27.9225 42.1723 27.8809C42.19 27.8393 42.2179 27.8011 42.2544 27.7686C42.2908 27.7361 42.3351 27.7099 42.3844 27.6918C42.4337 27.6736 42.4871 27.6638 42.5412 27.663C43.0109 27.6523 43.482 27.6511 43.9532 27.663C44.0618 27.6703 44.1627 27.7113 44.235 27.7776C44.3072 27.8439 44.3452 27.9303 44.3411 28.0187C44.337 28.1072 44.291 28.191 44.2128 28.2527C44.1346 28.3143 44.0301 28.349 43.9212 28.3497C43.9144 28.3502 43.9076 28.3502 43.9008 28.3497H43.2363Z" fill="white"/>
<path d="M43.2588 37.0579C43.4726 37.0579 43.6863 37.052 43.9001 37.0579C43.957 37.0553 44.0139 37.0623 44.0674 37.0784C44.1208 37.0946 44.1695 37.1195 44.2105 37.1517C44.2515 37.1839 44.2838 37.2226 44.3055 37.2655C44.3271 37.3083 44.3376 37.3544 44.3363 37.4007C44.339 37.449 44.329 37.4973 44.3069 37.5423C44.2848 37.5873 44.2512 37.6279 44.2082 37.6614C44.1653 37.695 44.114 37.7207 44.0579 37.7369C44.0017 37.7531 43.942 37.7593 43.8826 37.7552C43.4551 37.7612 43.0261 37.7623 42.5986 37.7552C42.5393 37.7591 42.4796 37.7527 42.4236 37.7365C42.3676 37.7203 42.3164 37.6945 42.2735 37.661C42.2306 37.6275 42.197 37.5869 42.1748 37.5421C42.1526 37.4972 42.1424 37.449 42.1449 37.4007C42.1465 37.3529 42.16 37.3058 42.1846 37.2623C42.2092 37.2189 42.2444 37.1799 42.288 37.1477C42.3316 37.1156 42.3827 37.091 42.4384 37.0753C42.494 37.0597 42.553 37.0534 42.6117 37.0567C42.8254 37.0567 43.0392 37.0567 43.253 37.0567L43.2588 37.0579Z" fill="white"/>
<path d="M22.0987 45.4766H21.2393V46.2957H22.202V46.8086H20.5137V43.7759H22.1351V44.2888H21.2393V44.9861H22.0987V45.4766Z" fill="white"/>
<path d="M22.9707 46.8086V43.7759H23.6353L24.2169 44.9578C24.3275 45.1942 24.5078 45.583 24.6154 45.8442H24.6256C24.6037 45.5251 24.5543 44.998 24.5543 44.4401V43.77H25.1912V46.8027H24.5209L23.9508 45.6504C23.8044 45.3522 23.6787 45.0476 23.5742 44.7379H23.5626C23.58 45.0429 23.6076 45.5109 23.6076 46.1184V46.8027L22.9707 46.8086Z" fill="white"/>
<path d="M26.5064 44.3207H25.8477V43.7759H27.8966V44.3207H27.232V46.8086H26.5049L26.5064 44.3207Z" fill="white"/>
<path d="M30.1325 45.4766H29.2803V46.2957H30.2415V46.8086H28.5547V43.7759H30.1776V44.2888H29.2803V44.9861H30.1325V45.4766Z" fill="white"/>
<path d="M31.0112 43.8208C31.2727 43.7822 31.538 43.7628 31.8037 43.7629C32.2022 43.7629 32.557 43.8078 32.7999 43.9874C32.9036 44.0678 32.9837 44.1663 33.034 44.2753C33.0844 44.3844 33.1038 44.5014 33.0907 44.6174C33.0968 44.7766 33.0448 44.9337 32.9413 45.0689C32.8378 45.2041 32.6874 45.3114 32.509 45.3774V45.3868C32.7635 45.4672 32.8915 45.661 32.9627 45.9849C33.0125 46.2657 33.0923 46.5426 33.2012 46.8122H32.4509C32.3645 46.5754 32.3037 46.333 32.2691 46.0877C32.2022 45.7095 32.0859 45.6019 31.843 45.6019H31.7369V46.8122H31.0098L31.0112 43.8208ZM31.7383 45.1433H31.8663C32.1818 45.1433 32.3636 44.9365 32.3636 44.6706C32.3636 44.4047 32.2371 44.2297 31.9099 44.2203C31.8519 44.2186 31.7939 44.2246 31.7383 44.238V45.1433Z" fill="white"/>
<path d="M33.8906 43.8208C34.1402 43.7812 34.394 43.7618 34.6483 43.7629C35.0845 43.7629 35.4175 43.8113 35.6662 43.9992C35.7744 44.0855 35.8589 44.1894 35.9143 44.304C35.9697 44.4187 35.9947 44.5416 35.9876 44.6647C36.0037 44.9319 35.8904 45.1937 35.672 45.3939C35.4259 45.5812 35.1003 45.6841 34.7631 45.6811H34.6177V46.811H33.8906V43.8208ZM34.6177 45.1977C34.6556 45.2059 34.6949 45.2091 34.734 45.2071C35.1005 45.2071 35.2663 44.9956 35.2663 44.7119C35.2663 44.446 35.1339 44.2392 34.7951 44.2392C34.7349 44.239 34.675 44.2466 34.6177 44.2616V45.1977Z" fill="white"/>
<path d="M36.6957 43.8208C36.9572 43.7822 37.2225 43.7628 37.4883 43.7629C37.8867 43.7629 38.2415 43.8078 38.4844 43.9874C38.5881 44.0678 38.6682 44.1663 38.7185 44.2753C38.7689 44.3844 38.7883 44.5014 38.7752 44.6174C38.7813 44.7766 38.7293 44.9337 38.6258 45.0689C38.5223 45.2041 38.3719 45.3114 38.1935 45.3774V45.3868C38.448 45.4672 38.576 45.661 38.6472 45.9849C38.697 46.2657 38.7768 46.5426 38.8857 46.8122H38.1266C38.0403 46.5754 37.9795 46.333 37.9449 46.0877C37.878 45.7095 37.7616 45.6019 37.5188 45.6019H37.4126V46.8122H36.6855L36.6957 43.8208ZM37.4228 45.1433H37.5508C37.8663 45.1433 38.0481 44.9365 38.0481 44.6706C38.0481 44.4047 37.9216 44.2297 37.5944 44.2203C37.5364 44.2186 37.4785 44.2246 37.4228 44.238V45.1433Z" fill="white"/>
<path d="M40.2994 43.7759V46.8086H39.5723V43.7759H40.2994Z" fill="white"/>
<path d="M41.1481 46.2059C41.3392 46.2822 41.5489 46.3226 41.7618 46.324C42.105 46.324 42.2722 46.1799 42.2722 45.9813C42.2722 45.7615 42.105 45.6539 41.7909 45.4873C41.2805 45.2343 41.0871 44.9152 41.0871 44.641C41.0871 44.1553 41.4855 43.7499 42.2664 43.7499C42.4682 43.7479 42.6676 43.7852 42.8481 43.8586L42.7317 44.3668C42.5886 44.2961 42.4237 44.26 42.2562 44.2628C41.9465 44.2628 41.7967 44.4165 41.7967 44.5784C41.7967 44.7403 41.9072 44.8526 42.3115 45.0511C42.8044 45.2946 42.9877 45.6007 42.9877 45.9198C42.9877 46.473 42.4831 46.8382 41.7531 46.8382C41.5071 46.8433 41.2629 46.8029 41.0391 46.72L41.1481 46.2059Z" fill="white"/>
<path d="M45.2594 45.4766H44.4073V46.2957H45.3641V46.8086H43.6816V43.7759H45.3031V44.2888H44.4073V44.9861H45.2594V45.4766Z" fill="white"/>
</svg>
