<svg width="20" height="21" viewBox="0 0 20 21" fill="none" xmlns="http://www.w3.org/2000/svg">
<g clip-path="url(#clip0_101_136)">
<path d="M5.43066 8.54077C5.12004 8.54077 4.86816 8.79265 4.86816 9.10327C4.86816 9.4139 5.12004 9.66577 5.43066 9.66577H11.4619C11.7725 9.66577 12.0244 9.4139 12.0244 9.10327C12.0244 8.79265 11.7725 8.54077 11.4619 8.54077H5.43066Z" fill="white"/>
<path d="M8.14254 11.7339H5.43066C5.12004 11.7339 4.86816 11.9858 4.86816 12.2964C4.86816 12.607 5.12004 12.8589 5.43066 12.8589H8.14254C8.45316 12.8589 8.70504 12.607 8.70504 12.2964C8.70504 11.9858 8.45316 11.7339 8.14254 11.7339Z" fill="white"/>
<path d="M8.05902 18.8938H3.77777C2.85715 18.8938 2.10902 18.1425 2.10902 17.2188V5.82505C2.10902 4.9013 2.85715 4.15005 3.77777 4.15005H4.93965V4.2913C4.93965 5.11192 5.60715 5.7788 6.42777 5.7788H11.8028C12.6234 5.7788 13.2909 5.11192 13.2909 4.2913V4.15005H14.4471C15.3828 4.15005 16.1153 4.88567 16.1153 5.82505V9.0313C16.1153 9.34192 16.3671 9.5938 16.6778 9.5938C16.9884 9.5938 17.2403 9.34192 17.2403 9.0313V5.82505C17.2403 4.2813 15.9871 3.02505 14.4465 3.02505H13.2903V2.8813C13.2903 2.06067 12.6228 1.3938 11.8021 1.3938H6.42715C5.60652 1.3938 4.93902 2.06067 4.93902 2.8813V3.02505H3.77777C2.23715 3.02505 0.983398 4.2813 0.983398 5.82505V17.2188C0.983398 18.7625 2.23715 20.0188 3.77777 20.0188H8.05902C8.36965 20.0188 8.62152 19.7669 8.62152 19.4563C8.62152 19.1457 8.36965 18.8938 8.05902 18.8938ZM6.06527 2.8813C6.06527 2.6813 6.22777 2.5188 6.42777 2.5188H11.8028C12.0028 2.5188 12.1653 2.6813 12.1653 2.8813V4.29067C12.1653 4.49067 12.0028 4.65317 11.8028 4.65317H6.42777C6.22777 4.65317 6.06527 4.49067 6.06527 4.29067V2.8813Z" fill="white"/>
<path d="M18.4184 11.555C17.6484 10.7844 16.304 10.7838 15.5334 11.555L10.5465 16.5419C10.3859 16.7025 10.2809 16.9063 10.2427 17.1306L9.96898 18.7488C9.91085 19.0956 10.0252 19.4519 10.274 19.7C10.4796 19.9056 10.7577 20.0181 11.0434 20.0181C11.104 20.0181 11.164 20.0131 11.224 20.0031L12.8415 19.73C13.0659 19.6919 13.2696 19.5869 13.4302 19.4263L18.4171 14.4394C19.2127 13.6444 19.2127 12.3506 18.4184 11.555ZM12.6546 18.6213L11.079 18.9356L11.3427 17.3375L14.9171 13.7631L16.2115 15.0575L12.6546 18.6213ZM17.6221 13.6438L17.0059 14.2613L15.7121 12.9675L16.329 12.3506C16.5015 12.1781 16.7315 12.0825 16.9752 12.0825C17.2202 12.0825 17.4496 12.1775 17.6221 12.3506C17.979 12.7075 17.979 13.2869 17.6221 13.6438Z" fill="white"/>
</g>
<defs>
<clipPath id="clip0_101_136">
<rect width="20" height="20" fill="white" transform="translate(0 0.706299)"/>
</clipPath>
</defs>
</svg>
