<svg width="65" height="65" viewBox="0 0 65 65" fill="none" xmlns="http://www.w3.org/2000/svg">
<circle cx="32.5" cy="32.5" r="25.3906" fill="white" fill-opacity="0.35"/>
<circle cx="32.5" cy="32.5" r="32.5" fill="white" fill-opacity="0.2"/>
<path d="M22.1699 46.629V42.041H24.9978V43.0533H23.3198V43.7572H24.9052V44.7638H23.3198V45.6176H25.0914V46.629H22.1699Z" fill="white"/>
<path d="M24.7136 44.5718H23.1282V45.8077H24.9008V46.438H22.3613V42.2358H24.8072V42.8661H23.1282V43.952H24.7136V44.5718Z" fill="white"/>
<path d="M27.9821 46.629L27.4721 45.6931C27.3766 45.5174 27.2935 45.3703 27.2219 45.2337C27.1569 45.3684 27.0824 45.5145 26.9917 45.6902L26.5218 46.629H25.1914L26.5495 44.3092L25.242 42.041H26.5676L27.0767 43.0113C27.1426 43.1374 27.2008 43.251 27.2572 43.3647C27.3097 43.252 27.3651 43.1402 27.4301 43.0122L27.9334 42.041H29.2705L27.9267 44.2853L29.3192 46.629H27.9821Z" fill="white"/>
<path d="M28.0954 46.4381L27.6408 45.6014C27.4593 45.2767 27.3409 45.0523 27.2225 44.8087H27.2034C27.1079 45.0523 26.9914 45.2767 26.8214 45.6014L26.403 46.4371H25.5234L26.7707 44.3092L25.575 42.232H26.4537L26.9092 43.0992C27.0468 43.3618 27.1461 43.5681 27.2588 43.805H27.2712C27.3839 43.5423 27.4708 43.3551 27.6016 43.0992L28.0515 42.232H28.9368L27.7077 44.2854L28.9865 46.4381H28.0954Z" fill="white"/>
<path d="M29.627 46.6291V42.1288L29.7836 42.1002C30.1826 42.035 30.5865 42.0049 30.9908 42.0104C31.5896 42.0104 32.048 42.1403 32.3555 42.3982C32.5096 42.5312 32.6323 42.6968 32.7149 42.8828C32.7974 43.0689 32.8378 43.271 32.8331 43.4745C32.8331 43.9282 32.687 44.3064 32.4119 44.5671C32.0843 44.8947 31.5781 45.0694 30.9507 45.0694C30.8838 45.0694 30.8227 45.0694 30.7673 45.0647V46.6291H29.627ZM30.773 44.0829C30.8322 44.0829 30.8962 44.0829 30.9564 44.0829C31.2305 44.0829 31.6889 44.0074 31.6889 43.5003C31.6889 43.1507 31.4654 42.9741 31.0204 42.9741C30.9153 42.9741 30.8294 42.9741 30.7682 42.9846L30.773 44.0829Z" fill="white"/>
<path d="M29.8183 42.2883C30.2059 42.225 30.5984 42.1959 30.9911 42.2014C31.5536 42.2014 31.9652 42.3198 32.2327 42.5443C32.3658 42.6593 32.4717 42.8023 32.5429 42.9632C32.6141 43.124 32.6487 43.2987 32.6443 43.4745C32.6443 43.8737 32.5192 44.2042 32.2823 44.4296C31.9767 44.7352 31.4963 44.8794 30.9529 44.8794C30.8276 44.8817 30.7024 44.8733 30.5785 44.8546V46.439H29.8145L29.8183 42.2883ZM30.5823 44.2481C30.7054 44.2733 30.8311 44.2836 30.9567 44.2787C31.5297 44.2787 31.8802 43.9979 31.8802 43.5051C31.8802 43.0371 31.5565 42.7878 31.0207 42.7878C30.8721 42.7845 30.7235 42.797 30.5775 42.8251L30.5823 44.2481Z" fill="white"/>
<path d="M33.3848 46.629V42.041H36.2136V43.0533H34.5347V43.7572H36.12V44.7638H34.5347V45.6176H36.3072V46.629H33.3848Z" fill="white"/>
<path d="M35.9265 44.5718H34.3411V45.8077H36.1137V46.438H33.5742V42.2358H36.0201V42.8661H34.3411V43.952H35.9265V44.5718Z" fill="white"/>
<path d="M39.1229 46.629L39.0704 46.524C38.9749 46.333 38.8574 45.8555 38.7743 45.4878C38.6674 44.993 38.5174 44.9099 38.2013 44.9004H38.0103V46.629H36.8633V42.1279L37.0209 42.1002C37.4158 42.0386 37.815 42.0085 38.2147 42.0104C38.8832 42.0104 39.3235 42.1279 39.6358 42.3924C39.7763 42.515 39.8878 42.6672 39.9621 42.8382C40.0365 43.0092 40.0718 43.1946 40.0656 43.3809C40.0659 43.5943 40.0128 43.8044 39.9113 43.992C39.8097 44.1797 39.6628 44.3389 39.484 44.4553C39.6654 44.6225 39.7991 44.8727 39.8879 45.2127L39.9452 45.4429C40.0408 45.8249 40.1363 46.227 40.2022 46.3435L40.3531 46.6252L39.1229 46.629ZM38.2739 43.9549C38.6817 43.9549 38.9252 43.7639 38.9252 43.4535C38.9252 43.3341 38.9252 42.9702 38.292 42.9702C38.1688 42.9702 38.0762 42.9702 38.0055 42.9817V43.9549H38.2739Z" fill="white"/>
<path d="M37.0547 42.2884C37.4386 42.2286 37.8266 42.1995 38.2151 42.2014C38.8206 42.2014 39.2322 42.2969 39.513 42.5376C39.6324 42.6423 39.7269 42.7724 39.7895 42.9183C39.8521 43.0642 39.8813 43.2223 39.875 43.3809C39.8724 43.6137 39.7975 43.8399 39.6606 44.0281C39.5237 44.2164 39.3316 44.3574 39.1109 44.4315V44.4554C39.4108 44.5681 39.5885 44.8613 39.6973 45.2672C39.8282 45.7915 39.9409 46.2776 40.0287 46.44H39.236C39.173 46.3149 39.0737 45.972 38.9552 45.4477C38.8359 44.8985 38.6363 44.7237 38.1998 44.7113H37.8187V46.44H37.0547V42.2884ZM37.8187 44.1478H38.2743C38.7919 44.1478 39.1167 43.8737 39.1167 43.4554C39.1167 42.9932 38.7919 42.7812 38.2934 42.7812C38.1333 42.7766 37.9733 42.7891 37.8159 42.8184L37.8187 44.1478Z" fill="white"/>
<path d="M41.5228 46.629V43.0657H40.3242V42.041H43.8828V43.0657H42.6717V46.629H41.5228Z" fill="white"/>
<path d="M41.7113 42.8747H40.5137V42.232H43.6892V42.8747H42.4792V46.4381H41.7151L41.7113 42.8747Z" fill="white"/>
<path d="M30.4728 28.2643C30.0234 28.2738 29.5814 28.1482 29.2043 27.9036C28.8271 27.6591 28.532 27.307 28.3573 26.8928C28.1617 26.4244 28.1266 25.9045 28.2573 25.4141C28.3881 24.9236 28.6775 24.4902 29.0803 24.1814C29.4938 23.8661 29.9986 23.6935 30.5186 23.6895C30.7746 23.6823 31.0292 23.7305 31.2649 23.8307C31.5006 23.9309 31.7119 24.0808 31.8843 24.2702C32.1584 24.5825 32.4497 24.6456 32.8289 24.6456C32.8986 24.6456 32.9683 24.6456 33.0371 24.6456C33.1058 24.6456 33.1822 24.6456 33.2548 24.6456C33.3944 24.6431 33.5338 24.654 33.6712 24.678C33.7214 24.6361 33.7686 24.5908 33.8126 24.5424L33.8794 24.4736C34.3315 24.0074 34.9493 23.7384 35.5985 23.7249C36.0343 23.7267 36.4601 23.8555 36.8239 24.0954C37.269 24.3889 37.5981 24.8279 37.7549 25.3374C37.9118 25.8469 37.8865 26.3951 37.6834 26.888C37.3367 27.739 36.5211 28.2681 35.5556 28.2681C35.4235 28.2681 35.2917 28.2582 35.1611 28.2385C34.0934 28.0828 33.3666 27.2061 33.3102 26.0065C33.3102 25.9387 33.3026 25.8709 33.2978 25.7897C33.1857 25.7677 33.072 25.7543 32.9578 25.7496C32.8241 25.7496 32.6971 25.7496 32.6961 26.1842C32.6961 27.1908 31.9149 28.0742 30.8815 28.2385C30.7461 28.2576 30.6095 28.2662 30.4728 28.2643ZM30.4489 24.8261C29.8644 24.8261 29.3095 25.3599 29.2847 25.9454C29.2802 26.1005 29.3067 26.255 29.3626 26.3998C29.4185 26.5446 29.5027 26.6768 29.6103 26.7887C29.7183 26.9034 29.8481 26.9954 29.9921 27.0592C30.1361 27.123 30.2914 27.1573 30.4489 27.1602C30.7553 27.1651 31.0511 27.0481 31.2714 26.835C31.4916 26.6219 31.6183 26.3301 31.6236 26.0237C31.6229 25.7176 31.5054 25.4233 31.2951 25.2009C31.0847 24.9785 30.7974 24.8448 30.4919 24.827L30.4489 24.8261ZM35.5708 24.8261C35.4173 24.8303 35.2661 24.8652 35.1262 24.9287C34.9863 24.9922 34.8605 25.0829 34.7562 25.1957C34.6449 25.309 34.5574 25.4434 34.4989 25.591C34.4403 25.7386 34.4119 25.8965 34.4152 26.0552C34.4274 26.3554 34.5559 26.639 34.7736 26.8459C34.9913 27.0529 35.281 27.167 35.5814 27.164H35.6129C35.9177 27.1488 36.2052 27.0179 36.4169 26.798C36.6286 26.5782 36.7485 26.2859 36.7522 25.9807C36.7345 25.6769 36.6044 25.3906 36.3873 25.1774C36.1702 24.9642 35.8816 24.8393 35.5775 24.827V24.636L35.5708 24.8261Z" fill="white"/>
<path d="M36.7231 24.2473C35.8635 23.6886 34.7948 23.8309 34.0136 24.6016C33.9085 24.7057 33.7624 24.8881 33.6707 24.8652C33.0308 24.7267 32.3336 25.0744 31.7405 24.3963C31.1169 23.6857 29.947 23.7535 29.1963 24.3323C28.8264 24.6143 28.5605 25.0112 28.4404 25.4605C28.3203 25.9099 28.3527 26.3865 28.5325 26.8154C28.9088 27.7113 29.839 28.2003 30.8562 28.0379C31.7663 27.8937 32.5046 27.1258 32.5075 26.1727C32.5075 25.3867 32.9458 25.5328 33.4816 25.613C33.4912 25.7716 33.4979 25.8785 33.5036 25.9865C33.5552 27.0886 34.2199 27.8966 35.1912 28.0389C36.2236 28.1898 37.1443 27.6989 37.5081 26.804C37.6931 26.3528 37.7159 25.8514 37.5728 25.3853C37.4296 24.9191 37.1294 24.517 36.7231 24.2473ZM30.4464 27.3503C30.2647 27.3466 30.0855 27.307 29.9191 27.2339C29.7526 27.1608 29.6022 27.0556 29.4765 26.9243C29.3508 26.793 29.2522 26.6382 29.1865 26.4688C29.1207 26.2993 29.089 26.1185 29.0931 25.9368C29.1237 25.2234 29.7922 24.6045 30.4999 24.6351C30.8547 24.655 31.1884 24.8099 31.4327 25.0679C31.677 25.3258 31.8134 25.6674 31.8141 26.0228C31.8076 26.3798 31.6601 26.7197 31.4039 26.9684C31.1477 27.2171 30.8035 27.3544 30.4464 27.3503ZM35.6181 27.3503C35.2623 27.3619 34.9163 27.2328 34.6553 26.9908C34.3942 26.7489 34.2391 26.4137 34.2237 26.0581C34.195 25.3131 34.834 24.636 35.5694 24.6312C36.2771 24.6312 36.9313 25.2654 36.9427 25.9731C36.9391 26.3275 36.8004 26.6672 36.555 26.9229C36.3096 27.1786 35.9759 27.3311 35.6219 27.3493L35.6181 27.3503Z" fill="white"/>
<path d="M32.9474 32.0941C32.8128 32.0387 32.6791 31.9871 32.5473 31.9365C32.2007 31.8113 31.8628 31.6633 31.5359 31.4933C31.3697 31.4026 31.3401 31.1973 31.3114 30.9986C31.3009 30.9308 31.2923 30.8668 31.279 30.8172L31.2207 30.5975L31.4471 30.5784C31.4997 30.5723 31.552 30.5633 31.6037 30.5516C31.6894 30.5306 31.7771 30.5185 31.8654 30.5154C31.9441 30.513 32.0219 30.5329 32.0898 30.5727C32.3735 30.7616 32.7042 30.8678 33.0449 30.8792C33.3618 30.8724 33.6693 30.7703 33.9273 30.586C33.9922 30.5454 34.0676 30.5248 34.1441 30.5268C34.2485 30.5321 34.3518 30.5504 34.4517 30.5813C34.5079 30.5972 34.565 30.61 34.6226 30.6195L34.8576 30.651L34.7764 30.8735C34.7578 30.9303 34.7422 30.988 34.7296 31.0464C34.6876 31.225 34.6408 31.4284 34.4765 31.5163C34.1621 31.6782 33.8369 31.8182 33.5033 31.9355C33.3696 31.9861 33.233 32.0377 33.0936 32.0941L33.0219 32.1227L32.9474 32.0941Z" fill="white"/>
<path d="M34.0262 30.7455C33.329 31.2049 32.6748 31.1543 31.9862 30.735C31.863 30.6605 31.6376 30.7532 31.459 30.7685C31.5106 30.9595 31.5029 31.2603 31.6233 31.3262C32.053 31.5621 32.5267 31.7178 33.0148 31.9174C33.5095 31.7187 33.9651 31.5736 34.3776 31.3443C34.5075 31.2737 34.5218 30.991 34.5897 30.8047C34.3986 30.7828 34.1475 30.6663 34.0262 30.7455Z" fill="white"/>
<path d="M30.4528 26.9224C29.8693 26.8909 29.5226 26.5404 29.5274 25.9808C29.5322 25.4211 29.8999 25.0696 30.4433 25.0696H30.4901C31.0297 25.0897 31.3697 25.4364 31.3773 25.9731C31.3859 26.5299 31.0583 26.8757 30.4786 26.9215H30.4528V26.9224Z" fill="white"/>
<path d="M30.4828 25.2587C30.0234 25.2415 29.7188 25.5166 29.7188 25.9798C29.7188 26.443 29.9833 26.7028 30.4637 26.7286C30.9279 26.6923 31.1934 26.4506 31.1867 25.9741C31.179 25.53 30.9011 25.2769 30.4828 25.2587Z" fill="white"/>
<path d="M35.6076 26.9205C35.0021 26.8928 34.665 26.5652 34.6602 25.9979C34.6554 25.4306 35.0136 25.0792 35.5942 25.0715H35.6095C36.1319 25.0715 36.4901 25.4278 36.5006 25.9597C36.5111 26.5194 36.1864 26.8785 35.6305 26.9205H35.6076Z" fill="white"/>
<path d="M35.5965 25.2587C35.1553 25.2645 34.8478 25.4994 34.8516 25.9922C34.8554 26.485 35.1238 26.7037 35.6156 26.7266C36.0712 26.6923 36.3176 26.4143 36.309 25.9626C36.3014 25.53 36.0263 25.2587 35.5965 25.2587Z" fill="white"/>
<path d="M16.9551 47.9805L17.0888 46.7274C17.1767 45.8927 17.2626 45.079 17.3524 44.2643C17.3724 44.0848 17.4001 43.9052 17.4278 43.7305C17.4858 43.4153 17.5178 43.0958 17.5233 42.7754C17.5233 42.0333 17.8719 41.4804 18.6064 41.085L19.1307 40.7984C20.1249 40.2607 21.1525 39.704 22.2041 39.2398C24.6949 38.1405 26.8581 36.4367 28.6899 34.9258C28.7118 34.9077 28.7367 34.8886 28.7634 34.8685C28.7901 34.8484 28.8226 34.8246 28.8446 34.8045C28.835 34.518 28.8446 34.2152 28.8503 33.9249C28.8675 33.2143 28.8866 32.4809 28.6431 31.8887C28.1999 30.8105 27.5734 29.7771 26.9679 28.7781C26.711 28.355 26.4455 27.9186 26.1962 27.4792C25.7617 26.7152 25.8018 26.0868 26.3223 25.4937C26.3843 25.423 26.4063 25.1575 26.3442 24.9818C25.9393 23.8357 25.8667 22.6065 26.115 21.2293C26.6632 18.2181 28.9897 16.1905 32.0364 16.0634C32.236 16.0549 32.4365 16.051 32.6342 16.051C33.6625 16.0419 34.6875 16.1681 35.6828 16.4264C38.2404 17.1178 39.9729 19.3975 39.9929 22.1004C39.9852 22.711 39.9287 23.32 39.8239 23.9216C39.7704 24.2731 39.715 24.636 39.6816 24.9904C39.6587 25.2329 39.7055 25.4813 39.7981 25.6073C40.1868 26.1364 40.2365 26.6655 39.949 27.2309C39.9251 27.2768 39.9013 27.3264 39.8783 27.3713C39.7953 27.5576 39.6908 27.7336 39.567 27.8956C38.5528 29.1382 37.7884 30.5651 37.3159 32.0979C37.1249 32.6938 37.1469 33.3805 37.1641 34.0462C37.1698 34.2821 37.1765 34.5237 37.1736 34.7644C37.2294 34.8324 37.2936 34.8931 37.3646 34.9449C37.3923 34.9669 37.4191 34.9888 37.4429 35.0099C39.8974 37.111 42.3338 38.6668 44.8924 39.7565C45.6346 40.0897 46.3571 40.465 47.0565 40.8806L47.4806 41.1213C48.1252 41.4832 48.4528 42.0018 48.513 42.7534C48.6085 43.9129 48.747 45.0561 48.895 46.2661C48.9552 46.759 49.0173 47.2594 49.0765 47.7684L49.1013 47.9814H41.161V46.8354H47.8464C47.811 46.5221 47.7776 46.2108 47.7432 45.9013C47.6296 44.8574 47.5226 43.8709 47.3746 42.8738C47.3326 42.5873 47.1272 42.2454 46.9267 42.126C45.9569 41.5322 44.9508 40.9999 43.9144 40.532C41.287 39.3859 39.035 37.7451 37.1793 36.2934C36.4678 35.7367 35.7716 34.9984 36.0075 33.7406C35.0524 34.3585 34.0878 34.6718 33.15 34.6718C32.109 34.6718 31.0555 34.2897 30.0145 33.5257V33.647C30.032 33.9973 30.0234 34.3485 29.9887 34.6975C29.9687 34.8532 29.8789 35.3842 29.5561 35.6574C27.5505 37.3497 25.3319 39.0803 22.6682 40.2703C21.6406 40.7297 20.6292 41.2788 19.6502 41.8099L19.1565 42.0773C18.9149 42.2081 18.7047 42.4096 18.6885 42.5271C18.53 43.6522 18.402 44.8087 18.2855 45.9271C18.253 46.2295 18.2212 46.5326 18.19 46.8363H24.6251V47.9824L16.9551 47.9805ZM29.6105 20.7509C29.2562 20.7509 28.7968 20.9314 28.3928 22.3353C28.3604 22.4451 28.3346 22.5578 28.3155 22.6438C27.922 24.3973 28.0767 26.1393 28.3031 27.761C28.5199 29.312 29.1626 30.7331 30.3402 32.2345C30.9877 33.0615 32.044 33.5553 33.1672 33.5553C34.425 33.5553 35.4851 32.946 36.0753 31.882L36.1794 31.6968C36.3855 31.3504 36.5653 30.989 36.7171 30.6156C37.4926 28.547 37.8565 26.2835 37.7982 23.8873C37.782 23.213 37.6292 22.5206 37.4811 21.852C37.4248 21.5961 37.3665 21.3325 37.3169 21.0718C37.2519 20.7384 37.037 20.5408 36.5958 20.4118C36.0399 20.2466 35.4633 20.1614 34.8834 20.1587C33.6418 20.1587 32.4528 20.556 31.2389 21.3736L31.13 21.4471L31.0221 21.3717C30.4252 20.9543 29.9639 20.7509 29.6105 20.7509ZM38.7084 27.1249C39.0379 26.6655 39.015 26.465 38.9949 26.4058C38.9771 26.3706 38.952 26.3397 38.9211 26.3151C38.8903 26.2906 38.8546 26.2729 38.8163 26.2634L38.7084 27.1249ZM34.7382 19.0308C35.0658 19.031 35.3929 19.0575 35.7162 19.1101C38.0169 19.4854 38.1268 19.5828 38.6463 21.7097C38.7557 22.1881 38.8319 22.6735 38.8746 23.1624C38.8937 22.8759 38.907 22.5893 38.907 22.3028C38.907 19.9744 37.5767 18.1397 35.4345 17.5142C34.5755 17.2679 33.6863 17.1432 32.7928 17.1436C32.5884 17.1436 32.384 17.1503 32.1854 17.1637C29.4157 17.348 27.6431 18.8961 27.2019 21.5225C27.1393 21.9583 27.1205 22.3991 27.1455 22.8386C27.1723 22.7011 27.2028 22.5636 27.241 22.427C27.3647 21.9005 27.543 21.3883 27.773 20.8989C28.198 20.0565 28.8599 19.5924 29.6382 19.5924C30.041 19.6013 30.4361 19.7054 30.791 19.8961C30.9086 19.9699 31.0454 20.0073 31.1841 20.0037C31.3229 20.0002 31.4576 19.9557 31.5713 19.876C32.5377 19.3292 33.6278 19.0383 34.7382 19.0308Z" fill="white"/>
<path d="M48.3181 42.7649C48.2617 42.0572 47.9475 41.6016 47.3821 41.2836C46.5379 40.8061 45.7012 40.3066 44.813 39.9284C42.0434 38.7498 39.586 37.0985 37.3149 35.1531C37.184 35.0423 36.9768 34.9 36.9787 34.7711C36.9902 33.8552 36.8641 32.882 37.1296 32.0367C37.6094 30.4793 38.3858 29.0294 39.416 27.7667C39.5577 27.5695 39.678 27.3579 39.7751 27.1354C40.0311 26.6359 39.9833 26.1803 39.6404 25.7171C39.502 25.5261 39.4638 25.2157 39.4876 24.9693C39.5774 24.0143 39.8152 23.0592 39.8085 22.1042C39.7894 19.4949 38.1611 17.2954 35.6397 16.6135C34.468 16.3154 33.2581 16.1953 32.0506 16.2573C29.047 16.3824 26.837 18.346 26.304 21.2666C26.0825 22.4862 26.1016 23.7192 26.5266 24.9206C26.6001 25.1288 26.5953 25.4774 26.4674 25.6226C25.9564 26.2061 26.0166 26.7782 26.3642 27.3875C27.2018 28.8574 28.1845 30.268 28.8216 31.819C29.1874 32.7101 28.9973 33.8303 29.0393 34.8484C29.0393 34.921 28.897 35.006 28.813 35.0757C26.7863 36.7471 24.7158 38.343 22.2832 39.4174C21.057 39.9589 19.8803 40.617 18.6989 41.253C18.1106 41.5701 17.7114 42.0276 17.7162 42.7744C17.7162 43.2768 17.5977 43.7792 17.5424 44.2825C17.4163 45.4285 17.2969 46.5746 17.168 47.7866H24.435V47.0225H17.9779C18.1469 45.4944 18.293 43.9912 18.5031 42.4956C18.5337 42.273 18.8355 42.0304 19.0695 41.9044C20.2318 41.2769 21.3893 40.6294 22.5936 40.0898C25.1427 38.9513 27.3288 37.2857 29.4366 35.5055C29.6486 35.326 29.7661 34.9621 29.8034 34.6679C29.8626 34.1971 29.8186 33.7129 29.8186 33.1265C31.9054 34.8121 33.975 34.9344 36.1526 33.413C36.1698 33.5381 36.2175 33.6622 36.1965 33.7721C35.9969 34.8303 36.4744 35.4979 37.2977 36.1425C39.3902 37.7785 41.5429 39.2856 43.9917 40.3553C45.0356 40.8265 46.049 41.3627 47.0259 41.9607C47.2924 42.1202 47.5168 42.5242 47.5645 42.8442C47.768 44.2147 47.8979 45.5957 48.0612 47.0254H41.3519V47.7894H48.8844C48.68 46.0426 48.4489 44.4076 48.3181 42.7649ZM38.438 27.7495C38.5163 27.1201 38.5841 26.5757 38.651 26.0304C39.4915 26.1498 39.3138 26.7992 38.438 27.7495ZM27.1445 24.0085H26.9917C26.9917 23.171 26.8761 22.3133 27.0127 21.4987C27.4644 18.8178 29.3048 17.1713 32.17 16.9812C33.2879 16.9069 34.4102 17.0255 35.4879 17.3317C37.7475 17.9917 39.098 19.9515 39.098 22.3038C39.098 23.0048 39.0177 23.7048 38.9748 24.4049L38.8105 24.3887C38.6988 23.5081 38.6701 22.6075 38.4609 21.7498C37.9615 19.707 37.9175 19.6583 35.6856 19.2944C34.2835 19.0652 32.9159 19.3545 31.66 20.0451C31.32 20.2361 31.064 20.2523 30.7049 20.0689C29.5484 19.4806 28.5322 19.8197 27.9448 20.9867C27.7202 21.4634 27.5467 21.9625 27.4272 22.4757C27.2925 22.9799 27.2343 23.4985 27.1445 24.0085ZM36.2424 31.9747C34.9272 34.3432 31.6371 34.2028 30.1902 32.3567C29.13 31.0005 28.3565 29.5249 28.1139 27.7915C27.8713 26.0581 27.7414 24.3342 28.1291 22.6065C28.153 22.4995 28.1788 22.3926 28.2084 22.2875C28.7566 20.3879 29.5331 20.1014 31.1328 21.215C32.8223 20.0775 34.6398 19.6411 36.6502 20.2284C37.0971 20.3593 37.4142 20.578 37.5049 21.0364C37.6874 21.9819 37.9672 22.9303 37.9901 23.8825C38.0465 26.2061 37.7179 28.4916 36.8966 30.6825C36.7275 31.1323 36.4811 31.5535 36.2424 31.9747Z" fill="white"/>
</svg>
