<svg width="20" height="20" viewBox="0 0 20 20" fill="none" xmlns="http://www.w3.org/2000/svg">
<path d="M10 12.5C8.62125 12.5 7.5 11.3788 7.5 10C7.5 8.62125 8.62125 7.5 10 7.5C11.3788 7.5 12.5 8.62125 12.5 10C12.5 11.3788 11.3788 12.5 10 12.5ZM10 8.75C9.31062 8.75 8.75 9.31062 8.75 10C8.75 10.6894 9.31062 11.25 10 11.25C10.6894 11.25 11.25 10.6894 11.25 10C11.25 9.31062 10.6894 8.75 10 8.75Z" fill="#0F89CB"/>
<path d="M1.875 5C2.22 5 2.5 4.72 2.5 4.375V3.125C2.5 2.78062 2.78062 2.5 3.125 2.5H4.375C4.72 2.5 5 2.22 5 1.875C5 1.53 4.72 1.25 4.375 1.25H3.125C2.09125 1.25 1.25 2.09125 1.25 3.125V4.375C1.25 4.72 1.53 5 1.875 5Z" fill="#0F89CB"/>
<path d="M16.875 1.25H15.625C15.28 1.25 15 1.53 15 1.875C15 2.22 15.28 2.5 15.625 2.5H16.875C17.2194 2.5 17.5 2.78062 17.5 3.125V4.375C17.5 4.72 17.78 5 18.125 5C18.47 5 18.75 4.72 18.75 4.375V3.125C18.75 2.09125 17.9088 1.25 16.875 1.25Z" fill="#0F89CB"/>
<path d="M18.125 15C17.78 15 17.5 15.28 17.5 15.625V16.875C17.5 17.2194 17.2194 17.5 16.875 17.5H15.625C15.28 17.5 15 17.78 15 18.125C15 18.47 15.28 18.75 15.625 18.75H16.875C17.9088 18.75 18.75 17.9088 18.75 16.875V15.625C18.75 15.28 18.47 15 18.125 15Z" fill="#0F89CB"/>
<path d="M4.375 17.5H3.125C2.78062 17.5 2.5 17.2194 2.5 16.875V15.625C2.5 15.28 2.22 15 1.875 15C1.53 15 1.25 15.28 1.25 15.625V16.875C1.25 17.9088 2.09125 18.75 3.125 18.75H4.375C4.72 18.75 5 18.47 5 18.125C5 17.78 4.72 17.5 4.375 17.5Z" fill="#0F89CB"/>
<path d="M18.3986 10C18.3986 9.62754 18.2342 9.27754 17.9486 9.03942L14.7229 6.35504C11.8979 4.33754 8.10232 4.33754 5.27795 6.35504L2.0517 9.03942C1.76545 9.27754 1.60107 9.62754 1.60107 10C1.60107 10.3725 1.76545 10.7225 2.05107 10.9607L5.2767 13.645C6.6842 14.65 8.33232 15.1544 9.9867 15.1544C11.6523 15.1544 13.323 14.6432 14.7592 13.6169L17.948 10.9607C18.2342 10.7225 18.3986 10.3725 18.3986 10ZM13.9967 12.6275C11.6061 14.335 8.3942 14.3344 6.04107 12.6557L2.85232 9.99942L6.02295 7.35817C8.41107 5.66379 11.6123 5.66817 13.9598 7.34317L17.1486 9.99942L13.9967 12.6269V12.6275Z" fill="#0F89CB"/>
</svg>
