<svg width="66" height="66" viewBox="0 0 66 66" fill="none" xmlns="http://www.w3.org/2000/svg">
<circle cx="32.8809" cy="33" r="25.3906" fill="white" fill-opacity="0.35"/>
<circle cx="32.8809" cy="33" r="32.5" fill="white" fill-opacity="0.2"/>
<g clip-path="url(#clip0_320_1994)">
<path d="M48.065 29.0649L46.4198 19.9648C46.1876 18.6806 45.169 17.662 43.885 17.4299L34.7847 15.7847C33.771 15.6017 32.7305 15.927 32.002 16.6555L14.5033 34.154C13.2775 35.38 13.2775 37.3748 14.5034 38.6008L25.2487 49.3462C25.8618 49.9592 26.6669 50.2657 27.4722 50.2657C28.2774 50.2657 29.0826 49.9592 29.6956 49.3462L47.1942 31.8478C47.9229 31.1192 48.2484 30.0789 48.065 29.0649ZM45.7621 30.4158L28.2636 47.9143C27.8271 48.3507 27.1172 48.3507 26.6808 47.9143L15.9355 37.1688C15.4991 36.7324 15.4991 36.0224 15.9354 35.586L33.4339 18.0875C33.6457 17.8758 33.9314 17.7597 34.2256 17.7597C34.2917 17.7597 34.3583 17.7656 34.4245 17.7775L43.5248 19.4228C43.9818 19.5053 44.3443 19.868 44.427 20.3251L46.0722 29.4251C46.1375 29.786 46.0215 30.1564 45.7621 30.4158Z" fill="white"/>
<path d="M41.7739 22.0483C40.6931 20.9674 38.9344 20.9675 37.8537 22.0483C36.7727 23.1292 36.7727 24.8877 37.8537 25.9686C38.394 26.509 39.1039 26.7793 39.8138 26.7793C40.5237 26.7793 41.2335 26.509 41.7738 25.9687C42.2974 25.445 42.5858 24.7489 42.5858 24.0085C42.5858 23.268 42.2975 22.5719 41.7739 22.0483ZM40.3419 24.5365C40.0508 24.8277 39.577 24.8279 39.2857 24.5366C38.9945 24.2453 38.9945 23.7715 39.2857 23.4803C39.4313 23.3347 39.6226 23.2619 39.8138 23.2619C40.0051 23.2619 40.1963 23.3348 40.3419 23.4803C40.483 23.6214 40.5607 23.8089 40.5607 24.0084C40.5607 24.2079 40.483 24.3954 40.3419 24.5365Z" fill="white"/>
<path d="M26.4625 41.4675L24.8979 39.9029L25.8136 38.9872C25.9065 38.8943 25.9409 38.7871 25.9166 38.6659C25.8924 38.5445 25.8338 38.4375 25.7408 38.3444C25.6398 38.2435 25.5274 38.1817 25.4042 38.1595C25.2809 38.1372 25.1747 38.1706 25.0859 38.2594L24.1702 39.1751L23.1453 38.1502L24.716 36.5795C24.8049 36.4906 24.8343 36.3805 24.8039 36.2491C24.7736 36.1178 24.6998 35.9934 24.5826 35.8761C24.4734 35.7669 24.3542 35.6962 24.2247 35.6638C24.0954 35.6316 23.9843 35.6618 23.8913 35.7548L21.787 37.8591C21.6738 37.9724 21.602 38.0947 21.5717 38.2261C21.5414 38.3576 21.5728 38.4696 21.6657 38.5626L25.5165 42.4134C25.6097 42.5066 25.7278 42.5318 25.8713 42.4894C26.0148 42.447 26.1512 42.3611 26.2806 42.2316C26.4099 42.1022 26.4959 41.9659 26.5383 41.8223C26.5808 41.6788 26.5556 41.5606 26.4625 41.4675Z" fill="white"/>
<path d="M31.5502 36.052C31.5057 36.0076 31.4593 35.9813 31.4107 35.9732L29.3307 35.3727C29.6298 34.6937 29.4642 34.0386 28.8334 33.408C27.9683 32.5429 27.0384 32.6076 26.0438 33.6021L24.7884 34.8575C24.7035 34.9423 24.6621 35.0402 24.6641 35.1515C24.6662 35.2628 24.7056 35.3568 24.7824 35.4335L28.6393 39.2904C28.7324 39.3835 28.8505 39.4088 28.994 39.3663C29.1375 39.3239 29.2739 39.2379 29.4033 39.1086C29.5326 38.9792 29.6185 38.8429 29.6611 38.6993C29.7035 38.5558 29.6783 38.4376 29.5852 38.3445L28.1237 36.8831L28.524 36.4828L30.9679 37.2651C31.1459 37.3217 31.3055 37.2793 31.447 37.1377C31.5885 36.9962 31.6704 36.8092 31.6926 36.5766C31.715 36.3441 31.6674 36.1693 31.5502 36.052ZM27.9966 35.5547L27.3961 36.1552L26.2682 35.0272L26.8687 34.4268C27.0465 34.2489 27.2254 34.157 27.4054 34.1509C27.5852 34.1449 27.7762 34.2428 27.9784 34.4449C28.1806 34.6472 28.2786 34.8382 28.2725 35.0181C28.2664 35.198 28.1744 35.3768 27.9966 35.5547Z" fill="white"/>
<path d="M35.1337 33.1351C35.1014 33.0057 35.0307 32.8865 34.9215 32.7773C34.8043 32.6601 34.68 32.5864 34.5485 32.556C34.4171 32.5258 34.3069 32.5551 34.2181 32.6439L32.5928 34.2692L31.5619 33.2383L32.4716 32.3286C32.5645 32.2357 32.5989 32.1284 32.5747 32.0072C32.5504 31.8858 32.4919 31.7788 32.3988 31.6857C32.2979 31.5848 32.1855 31.5231 32.0623 31.5008C31.9389 31.4786 31.8327 31.512 31.7439 31.6008L30.8342 32.5105L29.8093 31.4856L31.4345 29.8603C31.5234 29.7714 31.5528 29.6613 31.5225 29.5298C31.4923 29.3985 31.4185 29.2742 31.3012 29.1569C31.1921 29.0476 31.0728 28.977 30.9433 28.9446C30.814 28.9124 30.7028 28.9427 30.6099 29.0356L28.451 31.1945C28.3379 31.3077 28.2661 31.43 28.2358 31.5614C28.2055 31.6929 28.2368 31.8049 28.3298 31.8979L32.1806 35.7487C32.2737 35.8419 32.3857 35.8732 32.5171 35.8428C32.6485 35.8125 32.7706 35.7407 32.8839 35.6275L35.0428 33.4686C35.1357 33.3757 35.1661 33.2646 35.1337 33.1351Z" fill="white"/>
<path d="M38.4033 29.8665C38.371 29.7371 38.3002 29.6179 38.191 29.5087C38.0738 29.3915 37.9495 29.3178 37.8181 29.2874C37.6866 29.2572 37.5765 29.2864 37.4876 29.3753L35.8624 31.0005L34.8315 29.9696L35.7411 29.06C35.8341 28.9671 35.8685 28.8598 35.8442 28.7386C35.82 28.6172 35.7614 28.5102 35.6684 28.4171C35.5674 28.3162 35.455 28.2545 35.3318 28.2323C35.2084 28.2101 35.1023 28.2434 35.0134 28.3323L34.1038 29.2419L33.0789 28.217L34.7041 26.5918C34.793 26.5028 34.8223 26.3928 34.7921 26.2613C34.7618 26.13 34.688 26.0056 34.5707 25.8883C34.4616 25.7791 34.3424 25.7085 34.2129 25.676C34.0836 25.6439 33.9724 25.6741 33.8794 25.7671L31.7206 27.9259C31.6074 28.0391 31.5356 28.1615 31.5053 28.2928C31.475 28.4244 31.5063 28.5364 31.5993 28.6294L35.4501 32.4802C35.5433 32.5734 35.6553 32.6047 35.7866 32.5742C35.918 32.544 36.0402 32.4722 36.1534 32.3589L38.3123 30.2001C38.4052 30.1071 38.4356 29.996 38.4033 29.8665Z" fill="white"/>
</g>
<defs>
<clipPath id="clip0_320_1994">
<rect width="34.5312" height="34.5312" fill="white" transform="translate(13.584 15.7344)"/>
</clipPath>
</defs>
</svg>
