<svg width="20" height="20" viewBox="0 0 20 20" fill="none" xmlns="http://www.w3.org/2000/svg">
<path d="M8.07171 6.92861C7.78599 6.64289 7.78599 6.21432 8.07171 5.92861L10.9289 3.07146C11.2146 2.78575 11.6431 2.78575 11.9289 3.07146C12.2146 3.35718 12.2146 3.78575 11.9289 4.07146L10.286 5.71432H17.8574C18.286 5.71432 18.5717 6.00004 18.5717 6.42861C18.5717 6.85718 18.286 7.14289 17.8574 7.14289H10.286L11.9289 8.78575C12.2146 9.07146 12.2146 9.50004 11.9289 9.78575C11.6431 10.0715 11.2146 10.0715 10.9289 9.78575L8.07171 6.92861Z" fill="#0F89CB"/>
<path d="M11.9287 14.0714C12.2144 13.7857 12.2144 13.3571 11.9287 13.0714L9.07157 10.2143C8.78585 9.92857 8.35728 9.92857 8.07157 10.2143C7.78585 10.5 7.78585 10.9286 8.07157 11.2143L9.71443 12.8571H2.143C1.71443 12.8571 1.42871 13.1429 1.42871 13.5714C1.42871 14 1.71443 14.2857 2.143 14.2857H9.71443L8.07157 15.9286C7.78585 16.2143 7.78585 16.6429 8.07157 16.9286C8.35728 17.2143 8.78585 17.2143 9.07157 16.9286L11.9287 14.0714Z" fill="#0F89CB"/>
</svg>
