<svg width="134" height="34" viewBox="0 0 134 34" fill="none" xmlns="http://www.w3.org/2000/svg">
<g clip-path="url(#clip0_295_2888)">
<path d="M133.481 13.6483C132.578 15.1882 131.107 15.6129 129.244 15.6353V16.9665C129.244 21.227 129.244 25.4874 129.244 29.7479C129.244 31.9361 127.977 33.3146 125.981 33.3419C123.92 33.3717 122.61 31.9957 122.602 29.7454C122.602 25.523 122.602 21.3007 122.602 17.0783V15.757C119.387 15.1286 118.318 14.4058 118.396 12.9652C118.471 11.5669 119.651 10.8242 122.527 10.4417V5.56614C122.527 4.78128 122.492 3.99393 122.527 3.20907C122.645 1.33633 124.033 0.0249088 125.856 0.0199413C126.286 0.00531957 126.716 0.0763395 127.118 0.228802C127.521 0.381265 127.888 0.612072 128.199 0.907565C128.51 1.20306 128.758 1.55724 128.928 1.94914C129.098 2.34105 129.187 2.76272 129.189 3.1892C129.267 5.58353 129.207 7.98035 129.207 10.5684C130.991 10.4566 132.5 10.8938 133.474 12.4064L133.481 13.6483Z" fill="white"/>
<path d="M89.1374 31.1163C89.175 31.012 89.1198 31.2032 89.042 31.382C88.3919 32.912 86.8933 33.7466 85.3195 33.4634C84.5453 33.3436 83.841 32.9507 83.3368 32.3572C82.8325 31.7637 82.5622 31.0098 82.5759 30.2346C82.5541 21.3411 82.5541 12.4476 82.5759 3.55415C82.5759 1.41813 84.0117 0.0123341 85.9621 0.0222691C87.9702 0.0346878 89.2704 1.47277 89.2754 3.71808C89.2754 6.4502 89.2754 9.18232 89.2754 11.6785C90.892 11.0948 92.4884 10.1882 94.1777 9.9647C100.867 9.11775 106.191 13.6903 106.578 20.4188C106.723 22.9398 106.359 25.3664 105.137 27.6217C102.863 31.8242 98.1839 34.0794 93.5276 33.0114C92.0466 32.6686 90.6861 31.8018 89.1374 31.1163ZM99.9134 21.5489C99.9134 18.4119 97.5137 15.9406 94.4714 15.9505C91.3639 15.9629 89.0144 18.3672 89.0244 21.5265C89.0244 24.7852 91.2835 27.1001 94.4338 27.0827C97.584 27.0653 99.9084 24.7132 99.9134 21.5489Z" fill="white"/>
<path d="M49.3041 12.3243C49.3041 9.16001 49.274 6.23912 49.3041 3.31575C49.3368 0.804681 51.8143 -0.732757 54.0734 0.35264C55.4163 1.0009 55.9485 2.11113 55.9435 3.58151C55.9184 11.4823 55.9435 19.3831 55.9435 27.2839C55.9435 28.0713 55.9435 28.8561 55.9435 29.6435C55.9435 31.8267 54.9821 33.1207 53.1497 33.4386C51.4478 33.7267 50.0246 32.7581 49.259 30.7065C47.0651 33.0114 44.319 33.4833 41.3395 33.1058C37.0246 32.5619 34.158 30.1402 32.6143 26.2109C31.4616 23.285 31.4197 20.0448 32.4963 17.0906C35.1646 9.39347 44.2387 7.82872 49.3041 12.3243ZM43.9199 27.0604C47.2032 27.0902 49.628 24.7207 49.638 21.4744C49.638 18.3499 47.3061 16.0102 44.1157 15.9481C40.9253 15.886 38.4277 18.258 38.3901 21.4123C38.3675 24.6114 40.732 27.0355 43.9199 27.0604Z" fill="white"/>
<path d="M13.0101 24.455C14.4911 28.2899 18.8587 29.728 22.6565 27.8354C23.1617 27.5496 23.6821 27.2909 24.2153 27.0605C25.7039 26.5091 27.1171 26.9835 27.7998 28.2154C28.4274 29.3505 28.1111 30.6197 26.8184 31.5809C24.2706 33.4785 21.3312 34.164 18.1985 33.9777C13.6401 33.707 9.88247 31.9311 7.90699 27.6615C5.89889 23.3498 6.40091 19.1373 9.07672 15.1807C9.57875 14.448 10.1711 14.0953 11.0597 14.1872C12.0136 14.2891 13.0201 14.2021 13.9188 14.4753C15.0207 14.8106 15.7085 14.5076 16.4013 13.6979C16.9661 13.0397 17.7241 12.5504 18.309 11.9071C19.3934 10.7174 20.6083 10.6653 22.0114 11.2564C26.3766 13.077 29.0524 16.1966 29.5569 20.9256C29.8079 23.2256 28.6382 24.4352 26.2937 24.4525C22.3227 24.4799 18.3492 24.4525 14.3781 24.4525L13.0101 24.455ZM13.1883 19.3584H22.9778C22.4532 17.2919 20.548 16.0028 18.1383 16.0202C15.4098 16.0426 13.7481 17.1454 13.1883 19.3609V19.3584Z" fill="white"/>
<path d="M73.1077 30.3738C71.0243 33.0438 68.1778 33.851 64.6259 32.8774C61.6012 32.0429 59.1639 29.4548 59.0007 26.293C58.7723 21.8794 58.8225 17.4484 58.8702 13.0248C58.8878 11.2638 60.4591 10.0716 62.2915 10.1362C62.711 10.1385 63.1258 10.2228 63.5123 10.3842C63.8987 10.5457 64.2491 10.7812 64.5432 11.0771C64.8374 11.373 65.0695 11.7235 65.2263 12.1085C65.3831 12.4935 65.4614 12.9053 65.4568 13.3204C65.4994 16.2562 65.4693 19.192 65.4718 22.1277C65.4718 22.5425 65.4718 22.9548 65.4718 23.3696C65.5973 25.8732 66.6742 27.0282 68.9082 27.0605C71.2401 27.0952 72.6558 25.836 72.7286 23.4094C72.8265 20.1035 72.7537 16.7927 72.7964 13.4868C72.8265 11.1546 74.8522 9.6345 77.0636 10.2331C77.7585 10.4114 78.3728 10.8152 78.8083 11.3799C79.2438 11.9446 79.4754 12.6375 79.4658 13.3477C79.4859 18.8881 79.4859 24.4302 79.4658 29.9739C79.4658 31.6802 78.3313 32.9544 76.7398 33.2028C75.1484 33.4511 73.8105 32.4477 73.1077 30.3738Z" fill="white"/>
<path d="M1.52114 10.4467L0 10.2654L4.33752 6.78818C5.11817 6.16476 5.8938 5.5463 6.67947 4.92039C8.18555 3.73813 9.53349 2.09886 11.2454 1.52263C12.9121 0.958822 14.9554 1.47296 16.833 1.54251C19.6318 1.64434 22.4281 1.76853 25.2243 1.89023C25.356 1.92038 25.4839 1.96452 25.6059 2.02187L23.4898 3.58415C20.6408 5.67794 17.8044 7.80651 14.9228 9.84567C14.3873 10.2091 13.7571 10.4118 13.1079 10.4293C9.52095 10.484 5.93145 10.4567 2.06333 10.4567L2.71596 23.1113H0.818307L1.52114 10.4467Z" fill="white"/>
<path d="M116.481 21.5962C116.481 24.2836 116.493 26.971 116.481 29.6584C116.481 31.8019 115.138 33.2251 113.18 33.235C111.222 33.2449 109.854 31.7994 109.851 29.6833C109.841 24.3531 109.841 19.0214 109.851 13.6879C109.851 11.5221 111.147 10.1486 113.15 10.1411C115.153 10.1337 116.465 11.4997 116.481 13.6606C116.493 16.2983 116.481 18.9435 116.481 21.5962Z" fill="white"/>
<path d="M6.91545 14.2516L5.88379 10.8986C8.30858 10.8986 10.6028 10.9582 12.8921 10.8663C13.6991 10.8325 14.4828 10.5883 15.1638 10.1584C17.1342 8.8445 19.0143 7.39896 21.0224 5.93604C21.4567 7.0413 21.8734 8.09441 22.3176 9.21955C19.6594 9.94977 17.8471 11.7778 15.9896 13.5562C15.6934 13.8368 15.1939 14.187 14.8726 14.1175C12.2438 13.5691 9.52383 13.615 6.91545 14.2516Z" fill="white"/>
<path d="M113.149 9.46307C112.494 9.46242 111.854 9.26863 111.31 8.90644C110.767 8.54424 110.345 8.03005 110.098 7.42944C109.851 6.82884 109.79 6.16906 109.924 5.53425C110.057 4.89945 110.379 4.31839 110.848 3.86521C111.316 3.41204 111.911 3.10728 112.555 2.9898C113.2 2.87233 113.865 2.94747 114.466 3.20564C115.067 3.46381 115.577 3.8933 115.93 4.43934C116.284 4.98538 116.465 5.6232 116.45 6.27146C116.445 6.69549 116.356 7.11441 116.188 7.50429C116.019 7.89418 115.775 8.24739 115.468 8.54376C115.161 8.84014 114.799 9.07387 114.401 9.23161C114.003 9.38934 113.578 9.46799 113.149 9.46307Z" fill="white"/>
</g>
<defs>
<clipPath id="clip0_295_2888">
<rect width="133.481" height="34" fill="white"/>
</clipPath>
</defs>
</svg>
