<svg width="106" height="27" viewBox="0 0 106 27" fill="none" xmlns="http://www.w3.org/2000/svg">
<g clip-path="url(#clip0_195_159)">
<path d="M106 10.8384C105.283 12.0613 104.114 12.3985 102.635 12.4163V13.4735C102.635 16.8568 102.635 20.2401 102.635 23.6234C102.635 25.3611 101.629 26.4557 100.044 26.4774C98.4075 26.5011 97.367 25.4084 97.361 23.6214C97.361 20.2684 97.361 16.9153 97.361 13.5622V12.5129C94.8076 12.0139 93.9584 11.44 94.0202 10.296C94.08 9.18552 95.0169 8.59577 97.3012 8.29203V4.42023C97.3012 3.79696 97.2733 3.17171 97.3012 2.54844C97.3949 1.06126 98.4972 0.019838 99.9444 0.0158932C100.286 0.00428181 100.627 0.06068 100.947 0.181754C101.267 0.302827 101.559 0.486114 101.805 0.720771C102.052 0.955428 102.249 1.23669 102.384 1.54791C102.519 1.85912 102.59 2.19398 102.592 2.53266C102.653 4.43404 102.606 6.33739 102.606 8.39262C104.023 8.30386 105.221 8.651 105.994 9.85218L106 10.8384Z" fill="#0F89CB"/>
<path d="M70.7856 24.7102C70.8155 24.6273 70.7716 24.7792 70.7098 24.9212C70.1935 26.1362 69.0035 26.7989 67.7537 26.5741C67.1389 26.4789 66.5796 26.1669 66.1792 25.6956C65.7787 25.2243 65.5641 24.6256 65.575 24.01C65.5577 16.9475 65.5577 9.88505 65.575 2.82259C65.575 1.12634 66.7152 0.00997427 68.264 0.0178638C69.8587 0.0277257 70.8912 1.16973 70.8952 2.95277C70.8952 5.1224 70.8952 7.29202 70.8952 9.27427C72.1789 8.81076 73.4467 8.09084 74.7882 7.91333C80.1005 7.24074 84.3283 10.8719 84.6353 16.2151C84.7509 18.2171 84.4619 20.1441 83.4911 21.935C81.6852 25.2723 77.9696 27.0632 74.2719 26.2151C73.0959 25.9429 72.0155 25.2546 70.7856 24.7102ZM79.343 17.1125C79.343 14.6214 77.4374 12.6589 75.0214 12.6668C72.5537 12.6766 70.6879 14.5859 70.6959 17.0948C70.6959 19.6826 72.4899 21.5208 74.9915 21.507C77.4932 21.4932 79.339 19.6254 79.343 17.1125Z" fill="#0F89CB"/>
<path d="M39.1532 9.78709C39.1532 7.27427 39.1293 4.95474 39.1532 2.63324C39.1792 0.639155 41.1466 -0.581751 42.9406 0.280182C44.007 0.794975 44.4296 1.67663 44.4256 2.84428C44.4057 9.11845 44.4256 15.3926 44.4256 21.6668C44.4256 22.292 44.4256 22.9153 44.4256 23.5405C44.4256 25.2743 43.6622 26.3019 42.2071 26.5543C40.8556 26.7831 39.7253 26.0139 39.1174 24.3847C37.3752 26.2151 35.1945 26.5899 32.8284 26.29C29.4018 25.8581 27.1254 23.935 25.8995 20.8147C24.9842 18.4911 24.9509 15.9181 25.8058 13.5721C27.9248 7.45967 35.1307 6.21707 39.1532 9.78709ZM34.8775 21.4893C37.4848 21.5129 39.4104 19.6313 39.4184 17.0534C39.4184 14.5721 37.5666 12.7141 35.033 12.6648C32.4995 12.6155 30.5161 14.4991 30.4862 17.0041C30.4683 19.5445 32.346 21.4695 34.8775 21.4893Z" fill="#0F89CB"/>
<path d="M10.3313 19.42C11.5074 22.4654 14.9758 23.6074 17.9917 22.1044C18.3929 21.8775 18.8061 21.6721 19.2296 21.489C20.4116 21.0512 21.5339 21.4279 22.0761 22.4062C22.5744 23.3076 22.3232 24.3155 21.2967 25.0788C19.2734 26.5857 16.9392 27.1301 14.4515 26.9821C10.8316 26.7671 7.84759 25.3569 6.27883 21.9664C4.68415 18.5423 5.08282 15.1971 7.20772 12.0551C7.60639 11.4733 8.07682 11.1932 8.78246 11.2662C9.53993 11.347 10.3393 11.278 11.0529 11.495C11.928 11.7612 12.4741 11.5206 13.0243 10.8776C13.4728 10.3549 14.0748 9.96636 14.5392 9.45551C15.4004 8.51073 16.3651 8.46932 17.4794 8.93874C20.9458 10.3845 23.0707 12.8618 23.4714 16.6172C23.6707 18.4437 22.7418 19.4042 20.8801 19.418C17.7266 19.4397 14.5711 19.418 11.4177 19.418L10.3313 19.42ZM10.4728 15.3727H18.2469C17.8302 13.7316 16.3173 12.708 14.4037 12.7218C12.2369 12.7395 10.9173 13.6153 10.4728 15.3746V15.3727Z" fill="#0F89CB"/>
<path d="M58.0562 24.1204C56.4018 26.2407 54.1413 26.8817 51.3207 26.1086C48.9188 25.4458 46.9832 23.3906 46.8537 20.8798C46.6723 17.3748 46.7121 13.8561 46.75 10.3433C46.764 8.94486 48.0118 7.99811 49.4669 8.04939C49.8 8.05119 50.1295 8.11813 50.4364 8.24636C50.7433 8.37458 51.0215 8.56156 51.2551 8.79655C51.4887 9.03153 51.673 9.30989 51.7975 9.61562C51.922 9.92135 51.9842 10.2484 51.9805 10.578C52.0144 12.9094 51.9905 15.2407 51.9925 17.5721C51.9925 17.9015 51.9925 18.2289 51.9925 18.5583C52.0922 20.5464 52.9473 21.4636 54.7214 21.4892C56.5732 21.5169 57.6974 20.5169 57.7552 18.5898C57.833 15.9646 57.7752 13.3354 57.8091 10.7101C57.833 8.85808 59.4416 7.65098 61.1978 8.12632C61.7496 8.26795 62.2374 8.58862 62.5833 9.03703C62.9291 9.48544 63.1129 10.0357 63.1054 10.5997C63.1213 14.9994 63.1213 19.4005 63.1054 23.8028C63.1054 25.1579 62.2044 26.1697 60.9406 26.3669C59.6768 26.5642 58.6144 25.7674 58.0562 24.1204Z" fill="#0F89CB"/>
<path d="M1.20797 8.29588L0 8.1519L3.4445 5.39056C4.06443 4.89549 4.68037 4.40436 5.30429 3.90732C6.50029 2.96847 7.57072 1.66669 8.93018 1.2091C10.2538 0.761367 11.8763 1.16965 13.3674 1.22488C15.5899 1.30575 17.8105 1.40437 20.0311 1.50101C20.1356 1.52496 20.2372 1.56001 20.3341 1.60555L18.6537 2.84618C16.3913 4.50891 14.1388 6.19924 11.8504 7.81857C11.4252 8.10719 10.9247 8.26815 10.4092 8.28208C7.56075 8.32547 4.71027 8.30377 1.63853 8.30377L2.1568 18.3531H0.649832L1.20797 8.29588Z" fill="#0F89CB"/>
<path d="M92.4989 17.1499C92.4989 19.284 92.5089 21.4181 92.4989 23.5523C92.4989 25.2544 91.4325 26.3846 89.8777 26.3925C88.3229 26.4004 87.2365 25.2525 87.2345 23.572C87.2265 19.3392 87.2265 15.1052 87.2345 10.8698C87.2345 9.14989 88.2631 8.05916 89.8538 8.05325C91.4444 8.04733 92.487 9.13214 92.4989 10.8481C92.5089 12.9428 92.4989 15.0434 92.4989 17.1499Z" fill="#0F89CB"/>
<path d="M5.49162 11.3177L4.67236 8.65494C6.59793 8.65494 8.41984 8.70227 10.2378 8.62929C10.8787 8.60248 11.501 8.40856 12.0418 8.06717C13.6065 7.02378 15.0995 5.87585 16.6942 4.71411C17.0391 5.59182 17.37 6.42812 17.7228 7.32161C15.6118 7.90149 14.1726 9.35316 12.6976 10.7654C12.4623 10.9883 12.0657 11.2664 11.8105 11.2112C9.72296 10.7757 7.56298 10.8121 5.49162 11.3177Z" fill="#0F89CB"/>
<path d="M89.8539 7.51473C89.3335 7.51421 88.8251 7.36032 88.3935 7.07269C87.9618 6.78506 87.6266 6.37674 87.4304 5.89979C87.2343 5.42284 87.1862 4.89889 87.2923 4.39478C87.3984 3.89067 87.6538 3.42925 88.026 3.06937C88.3982 2.70949 88.8702 2.46748 89.382 2.37419C89.8938 2.2809 90.4221 2.34057 90.8994 2.54559C91.3768 2.7506 91.7816 3.09167 92.0623 3.52529C92.3429 3.95891 92.4867 4.46542 92.4752 4.98021C92.4713 5.31694 92.4004 5.64961 92.2665 5.95923C92.1327 6.26884 91.9385 6.54933 91.6951 6.78469C91.4517 7.02005 91.1638 7.20566 90.8479 7.33092C90.532 7.45618 90.1942 7.51864 89.8539 7.51473Z" fill="#0F89CB"/>
</g>
<defs>
<clipPath id="clip0_195_159">
<rect width="106" height="27" fill="white"/>
</clipPath>
</defs>
</svg>
