<svg width="130" height="33" viewBox="0 0 130 33" fill="none" xmlns="http://www.w3.org/2000/svg">
<g clip-path="url(#clip0_46_1489)">
<path d="M130 13.2468C129.12 14.7414 127.687 15.1536 125.873 15.1753V16.4674C125.873 20.6026 125.873 24.7377 125.873 28.8729C125.873 30.9967 124.639 32.3346 122.695 32.3611C120.688 32.3901 119.412 31.0546 119.405 28.8705C119.405 24.7723 119.405 20.6741 119.405 16.5759V15.2934C116.273 14.6835 115.232 13.982 115.308 12.5838C115.381 11.2266 116.53 10.5058 119.331 10.1345V5.40235C119.331 4.64057 119.297 3.87639 119.331 3.11461C119.446 1.29694 120.798 0.0240972 122.573 0.0192758C122.993 0.00508413 123.411 0.0740152 123.803 0.221994C124.195 0.369973 124.553 0.59399 124.855 0.880793C125.158 1.1676 125.399 1.51136 125.565 1.89174C125.731 2.27211 125.817 2.68138 125.82 3.09532C125.895 5.41923 125.837 7.74555 125.837 10.2575C127.575 10.149 129.044 10.5733 129.993 12.0414L130 13.2468Z" fill="white"/>
<path d="M86.8125 30.2012C86.8492 30.1 86.7954 30.2856 86.7196 30.4592C86.0864 31.9441 84.627 32.7541 83.0942 32.4793C82.3402 32.363 81.6543 31.9817 81.1632 31.4056C80.672 30.8296 80.4088 30.0979 80.4221 29.3454C80.401 20.7135 80.401 12.0816 80.4221 3.44972C80.4221 1.37652 81.8205 0.0120755 83.72 0.0217183C85.6757 0.0337717 86.9421 1.42956 86.947 3.60883C86.947 6.26059 86.947 8.91236 86.947 11.3351C88.5213 10.7686 90.0761 9.88869 91.7214 9.67173C98.2364 8.84968 103.422 13.2878 103.798 19.8183C103.94 22.2652 103.585 24.6204 102.395 26.8094C100.18 30.8883 95.6231 33.0772 91.0882 32.0406C89.6459 31.7079 88.3209 30.8666 86.8125 30.2012ZM97.3074 20.9152C97.3074 17.8705 94.9703 15.4719 92.0074 15.4815C88.9809 15.4936 86.6927 17.8271 86.7025 20.8935C86.7025 24.0563 88.9027 26.3031 91.9707 26.2862C95.0388 26.2694 97.3026 23.9864 97.3074 20.9152Z" fill="white"/>
<path d="M48.0183 11.9619C48.0183 8.89064 47.989 6.05566 48.0183 3.21827C48.0501 0.78106 50.463 -0.711158 52.6632 0.342315C53.9711 0.971507 54.4894 2.04909 54.4845 3.47622C54.46 11.1446 54.4845 18.8131 54.4845 26.4815C54.4845 27.2457 54.4845 28.0075 54.4845 28.7716C54.4845 30.8906 53.5482 32.1466 51.7635 32.4552C50.1061 32.7348 48.7199 31.7947 47.9743 29.8034C45.8377 32.0405 43.1632 32.4986 40.2614 32.1322C36.059 31.6042 33.2672 29.2538 31.7637 25.4401C30.6412 22.6002 30.6004 19.4553 31.6488 16.588C34.2475 9.11724 43.085 7.59851 48.0183 11.9619ZM42.7745 26.2645C45.9721 26.2934 48.3337 23.9936 48.3435 20.8429C48.3435 17.8102 46.0724 15.5393 42.9652 15.4791C39.858 15.4188 37.4256 17.721 37.3889 20.7826C37.3669 23.8876 39.6698 26.2404 42.7745 26.2645Z" fill="white"/>
<path d="M12.6707 23.7357C14.113 27.4578 18.3667 28.8536 22.0655 27.0166C22.5575 26.7393 23.0643 26.4882 23.5837 26.2645C25.0334 25.7293 26.4097 26.1898 27.0746 27.3855C27.6858 28.4872 27.3778 29.719 26.1188 30.652C23.6374 32.4937 20.7747 33.1591 17.7238 32.9783C13.2843 32.7155 9.62462 30.9919 7.70067 26.8479C5.74493 22.6629 6.23387 18.5744 8.83988 14.7341C9.32882 14.023 9.90576 13.6807 10.7712 13.7699C11.7001 13.8687 12.6804 13.7843 13.5556 14.0495C14.6288 14.3749 15.2987 14.0808 15.9734 13.295C16.5235 12.6561 17.2618 12.1812 17.8314 11.5568C18.8875 10.4021 20.0707 10.3515 21.4372 10.9252C25.6885 12.6923 28.2945 15.7201 28.7859 20.3101C29.0304 22.5424 27.8912 23.7164 25.6078 23.7333C21.7404 23.7598 17.8705 23.7333 14.003 23.7333L12.6707 23.7357ZM12.8442 18.7889H22.3784C21.8675 16.7832 20.012 15.5321 17.6651 15.549C15.0078 15.5706 13.3894 16.641 12.8442 18.7913V18.7889Z" fill="white"/>
<path d="M71.2011 29.4804C69.172 32.0719 66.3998 32.8553 62.9406 31.9104C59.9947 31.1004 57.621 28.5884 57.4621 25.5196C57.2396 21.2358 57.2885 16.9351 57.3349 12.6417C57.3521 10.9325 58.8824 9.77536 60.667 9.83803C61.0756 9.84023 61.4796 9.92205 61.856 10.0788C62.2323 10.2355 62.5736 10.464 62.86 10.7512C63.1465 11.0384 63.3726 11.3786 63.5253 11.7523C63.678 12.126 63.7543 12.5257 63.7497 12.9285C63.7913 15.778 63.762 18.6274 63.7644 21.4769C63.7644 21.8795 63.7644 22.2796 63.7644 22.6822C63.8866 25.1122 64.9354 26.2332 67.1112 26.2645C69.3823 26.2983 70.761 25.076 70.8319 22.7208C70.9273 19.5122 70.8564 16.2987 70.8979 13.0901C70.9273 10.8264 72.9001 9.35108 75.0539 9.93205C75.7306 10.1052 76.3289 10.4971 76.7531 11.0451C77.1772 11.5932 77.4027 12.2657 77.3934 12.9551C77.413 18.3325 77.413 23.7116 77.3934 29.0923C77.3934 30.7484 76.2884 31.9851 74.7385 32.2262C73.1886 32.4672 71.8856 31.4933 71.2011 29.4804Z" fill="white"/>
<path d="M1.48147 10.1393L0 9.96337L4.22439 6.5884C4.98468 5.98331 5.74008 5.38304 6.50526 4.77555C7.97206 3.62806 9.28484 2.037 10.9521 1.47772C12.5754 0.930492 14.5653 1.42951 16.3939 1.49701C19.1197 1.59585 21.8431 1.71638 24.5664 1.83451C24.6946 1.86377 24.8192 1.90661 24.938 1.96227L22.8772 3.4786C20.1025 5.51082 17.34 7.57678 14.5335 9.55596C14.012 9.90873 13.3982 10.1054 12.766 10.1225C9.27262 10.1755 5.77675 10.149 2.00952 10.149L2.64513 22.4315H0.796963L1.48147 10.1393Z" fill="white"/>
<path d="M113.442 20.961C113.442 23.5694 113.454 26.1777 113.442 28.7861C113.442 30.8665 112.134 32.2479 110.227 32.2575C108.321 32.2671 106.988 30.8641 106.986 28.8102C106.976 23.6369 106.976 18.4619 106.986 13.2853C106.986 11.1832 108.247 9.8501 110.198 9.84286C112.149 9.83563 113.428 11.1615 113.442 13.2588C113.454 15.819 113.442 18.3864 113.442 20.961Z" fill="white"/>
<path d="M6.73522 13.8325L5.73047 10.5781C8.09202 10.5781 10.3264 10.636 12.556 10.5468C13.342 10.514 14.1052 10.277 14.7684 9.85972C16.6875 8.58446 18.5185 7.18143 20.4742 5.76154C20.8972 6.83429 21.303 7.85643 21.7357 8.94847C19.1468 9.65722 17.3817 11.4315 15.5727 13.1575C15.2842 13.43 14.7977 13.7699 14.4848 13.7024C11.9246 13.1701 9.27557 13.2146 6.73522 13.8325Z" fill="white"/>
<path d="M110.198 9.18473C109.56 9.1841 108.937 8.99601 108.407 8.64446C107.878 8.29292 107.467 7.79385 107.226 7.21091C106.986 6.62798 106.927 5.9876 107.057 5.37146C107.187 4.75533 107.5 4.19136 107.956 3.75151C108.413 3.31166 108.992 3.01587 109.62 2.90185C110.247 2.78783 110.895 2.86076 111.481 3.11133C112.066 3.36191 112.562 3.77877 112.907 4.30875C113.251 4.83873 113.427 5.45779 113.413 6.08698C113.408 6.49854 113.321 6.90514 113.157 7.28356C112.993 7.66198 112.755 8.0048 112.456 8.29246C112.158 8.58012 111.805 8.80698 111.417 8.96007C111.03 9.11317 110.616 9.1895 110.198 9.18473Z" fill="white"/>
</g>
<defs>
<clipPath id="clip0_46_1489">
<rect width="130" height="33" fill="white"/>
</clipPath>
</defs>
</svg>
