<svg width="20" height="20" viewBox="0 0 20 20" fill="none" xmlns="http://www.w3.org/2000/svg">
<path fill-rule="evenodd" clip-rule="evenodd" d="M3.74268 5.625C2.71454 5.625 1.86768 6.47187 1.86768 7.5V12.5C1.86768 13.5281 2.71454 14.375 3.74268 14.375H11.8677C12.8958 14.375 13.7427 13.5281 13.7427 12.5V11.3586L16.6113 13.8184C17.1689 14.2963 18.1177 13.8594 18.1177 13.125V6.875C18.1177 6.50784 17.8801 6.21536 17.5732 6.07422C17.2664 5.93308 16.8901 5.9427 16.6113 6.18164L13.7427 8.64136V7.5C13.7427 6.47187 12.8958 5.625 11.8677 5.625H3.74268ZM3.74268 6.875H11.8677C12.2203 6.875 12.4927 7.14742 12.4927 7.5V12.5C12.4927 12.8526 12.2203 13.125 11.8677 13.125H3.74268C3.39009 13.125 3.11768 12.8526 3.11768 12.5V7.5C3.11768 7.14742 3.39009 6.875 3.74268 6.875ZM16.8677 7.60864V12.3914L14.0784 10L16.8677 7.60864Z" fill="#0F89CB"/>
<path fill-rule="evenodd" clip-rule="evenodd" d="M1.15687 3.15687C1.05643 3.25733 1 3.39358 1 3.53564C1 3.6777 1.05643 3.81395 1.15687 3.91441L15.0856 17.8431C15.1861 17.9436 15.3223 18 15.4644 18C15.6064 18 15.7427 17.9436 15.8431 17.8431C15.9436 17.7427 16 17.6064 16 17.4644C16 17.3223 15.9436 17.1861 15.8431 17.0856L1.91441 3.15687C1.81395 3.05643 1.6777 3 1.53564 3C1.39358 3 1.25733 3.05643 1.15687 3.15687Z" fill="#0F89CB"/>
</svg>
