<svg width="20" height="20" viewBox="0 0 20 20" fill="none" xmlns="http://www.w3.org/2000/svg">
<g clip-path="url(#clip0_112_74)">
<path d="M12.8688 9.98116C12.4059 9.6602 11.9092 9.39089 11.3876 9.17804C12.259 8.55372 12.9097 7.66891 13.246 6.65107C13.5824 5.63323 13.5869 4.53491 13.259 3.51432C12.9312 2.49373 12.2878 1.60356 11.4216 0.972034C10.5554 0.340514 9.51112 0.000244141 8.43916 0.000244141C7.3672 0.000244141 6.3229 0.340514 5.45671 0.972034C4.59052 1.60356 3.94715 2.49373 3.61928 3.51432C3.2914 4.53491 3.29596 5.63323 3.63228 6.65107C3.9686 7.66891 4.61933 8.55372 5.49072 9.17804C4.05862 9.76277 2.83311 10.7608 1.97044 12.0447C1.10777 13.3287 0.647033 14.8405 0.646973 16.3874C0.65686 16.7845 0.761927 17.1734 0.953343 17.5214C1.14476 17.8694 1.41693 18.1664 1.74697 18.3874C3.15635 19.4655 5.83135 19.9718 8.45322 19.9718C9.82025 19.983 11.1838 19.8331 12.5157 19.5249C13.2854 19.8717 14.1285 20.024 14.9709 19.9685C15.8133 19.9131 16.6292 19.6515 17.3468 19.2068C18.0644 18.7621 18.6617 18.1479 19.0863 17.4182C19.5109 16.6886 19.7497 15.8657 19.7818 15.0221C19.8138 14.1785 19.6381 13.34 19.2701 12.5802C18.9021 11.8204 18.353 11.1627 17.6712 10.6648C16.9894 10.167 16.1958 9.84427 15.36 9.72506C14.5243 9.60585 13.672 9.69379 12.8782 9.98116H12.8688ZM16.897 11.6593L11.4501 17.1062C10.9104 16.3543 10.6554 15.4351 10.7306 14.5127C10.8059 13.5902 11.2065 12.7245 11.8609 12.0701C12.5153 11.4157 13.381 11.0151 14.3035 10.9398C15.2259 10.8646 16.1451 11.1196 16.897 11.6593ZM4.62822 5.07804C4.6276 4.32448 4.85049 3.58767 5.2687 2.96081C5.6869 2.33395 6.28163 1.84521 6.97765 1.5564C7.67366 1.2676 8.4397 1.19172 9.17885 1.33835C9.918 1.48498 10.5971 1.84754 11.1301 2.38017C11.6632 2.9128 12.0263 3.59156 12.1735 4.33059C12.3208 5.06962 12.2455 5.83572 11.9573 6.53197C11.6691 7.22823 11.1808 7.82335 10.5543 8.24207C9.92778 8.66079 9.19115 8.88428 8.4376 8.88428C7.42834 8.88264 6.46084 8.48119 5.74689 7.76783C5.03294 7.05446 4.6307 6.0873 4.62822 5.07804ZM2.5001 17.3937C2.3228 17.2884 2.17345 17.142 2.06467 16.9669C1.95588 16.7917 1.89086 16.593 1.8751 16.3874C1.87531 14.8668 2.40607 13.394 3.37587 12.2228C4.34567 11.0516 5.69372 10.2555 7.1876 9.97179C7.59585 10.0779 8.01578 10.1325 8.4376 10.1343C8.85961 10.1325 9.27967 10.0768 9.6876 9.96866C10.3488 10.1013 10.9862 10.3331 11.5782 10.6562C10.97 11.0895 10.464 11.6507 10.0956 12.3004C9.72727 12.95 9.50554 13.6724 9.44598 14.4168C9.38643 15.1613 9.49049 15.9097 9.75086 16.6097C10.0112 17.3096 10.4216 17.9441 10.9532 18.4687L11.0345 18.5405C7.87822 19.0343 4.03447 18.5655 2.5001 17.3937ZM17.3688 17.5874C16.7123 18.2415 15.8448 18.6412 14.921 18.715C13.9972 18.7888 13.0772 18.5321 12.3251 17.9905L17.7813 12.5437C18.3229 13.2957 18.5797 14.2157 18.5058 15.1395C18.432 16.0634 18.0324 16.9309 17.3782 17.5874H17.3688Z" fill="#0F89CB"/>
</g>
<defs>
<clipPath id="clip0_112_74">
<rect width="20" height="20" fill="white"/>
</clipPath>
</defs>
</svg>
