<svg width="65" height="65" viewBox="0 0 65 65" fill="none" xmlns="http://www.w3.org/2000/svg">
<circle cx="32.5" cy="32.5" r="25.3906" fill="white" fill-opacity="0.35"/>
<circle cx="32.5" cy="32.5" r="32.5" fill="white" fill-opacity="0.2"/>
<g clip-path="url(#clip0_320_2195)">
<path d="M16.6841 34.4247C16.5027 34.4247 16.3287 34.3526 16.2004 34.2244C16.0721 34.0961 16 33.9221 16 33.7406V33.1249C16 32.9435 16.0721 32.7695 16.2004 32.6412C16.3287 32.5129 16.5027 32.4409 16.6841 32.4409C16.8655 32.4409 17.0395 32.5129 17.1678 32.6412C17.2961 32.7695 17.3682 32.9435 17.3682 33.1249V33.7406C17.3682 33.8305 17.3505 33.9194 17.3161 34.0024C17.2817 34.0854 17.2313 34.1608 17.1678 34.2244C17.1043 34.2879 17.0289 34.3383 16.9459 34.3726C16.8629 34.407 16.7739 34.4247 16.6841 34.4247Z" fill="white"/>
<path d="M16.6839 34.1511C16.575 34.1511 16.4706 34.1079 16.3937 34.0309C16.3167 33.9539 16.2734 33.8495 16.2734 33.7406V33.125C16.2734 33.0161 16.3167 32.9117 16.3937 32.8347C16.4706 32.7578 16.575 32.7145 16.6839 32.7145C16.7928 32.7145 16.8972 32.7578 16.9741 32.8347C17.0511 32.9117 17.0943 33.0161 17.0943 33.125V33.7406C17.0943 33.8495 17.0511 33.9539 16.9741 34.0309C16.8972 34.1079 16.7928 34.1511 16.6839 34.1511Z" fill="white"/>
<path d="M19.5108 41.2615C18.5805 41.2588 17.6891 40.8881 17.0313 40.2303C16.3735 39.5725 16.0027 38.6811 16 37.7508V35.0308C16 34.8494 16.0721 34.6754 16.2004 34.5471C16.3287 34.4188 16.5027 34.3467 16.6841 34.3467C16.8655 34.3467 17.0395 34.4188 17.1678 34.5471C17.2961 34.6754 17.3682 34.8494 17.3682 35.0308V37.7508C17.37 38.3186 17.5964 38.8626 17.998 39.2641C18.3995 39.6655 18.9436 39.8917 19.5114 39.8934H46.4892C47.0572 39.8919 47.6014 39.6656 48.0029 39.264C48.4044 38.8623 48.6306 38.318 48.6318 37.7501V28.5094C48.6304 27.9416 48.4042 27.3975 48.0027 26.996C47.6012 26.5945 47.057 26.3683 46.4892 26.3668H37.254C36.7827 26.3654 36.3312 26.1775 35.9979 25.8443C35.6647 25.511 35.4768 25.0595 35.4754 24.5882C35.4754 24.471 35.4871 24.3541 35.5103 24.2393L36.0343 21.6179C36.0402 21.5912 36.0407 21.5636 36.0357 21.5367C36.0308 21.5098 36.0206 21.4841 36.0056 21.4612C35.9906 21.4384 35.9712 21.4187 35.9485 21.4034C35.9259 21.3882 35.9004 21.3776 35.8735 21.3723C35.8605 21.3696 35.8472 21.3682 35.8338 21.3682C35.7835 21.3679 35.7348 21.3862 35.697 21.4195L31.2641 25.3147C30.4929 25.993 29.5008 26.3671 28.4737 26.3668H19.5121C18.9444 26.3684 18.4003 26.5947 17.9989 26.9962C17.5974 27.3976 17.3712 27.9417 17.3695 28.5094V31.8293C17.3695 32.0107 17.2975 32.1847 17.1692 32.313C17.0409 32.4413 16.8669 32.5134 16.6855 32.5134C16.504 32.5134 16.33 32.4413 16.2017 32.313C16.0734 32.1847 16.0014 32.0107 16.0014 31.8293V28.5094C16.0041 27.5791 16.3748 26.6877 17.0326 26.0299C17.6904 25.3721 18.5818 25.0014 19.5121 24.9986H28.4737C29.169 24.9989 29.8405 24.7457 30.3625 24.2865L34.7954 20.3913C35.0426 20.1732 35.352 20.0383 35.6799 20.0055C36.0079 19.9727 36.3379 20.0438 36.6234 20.2086C36.9088 20.3735 37.1352 20.6238 37.2707 20.9243C37.4062 21.2248 37.4439 21.5602 37.3785 21.8833L36.8511 24.5054C36.8386 24.5654 36.8398 24.6274 36.8544 24.6868C36.869 24.7463 36.8967 24.8018 36.9356 24.8491C36.9744 24.8965 37.0233 24.9346 37.0788 24.9606C37.1343 24.9865 37.1948 24.9998 37.2561 24.9993H46.4913C47.4216 25.0017 48.3131 25.3722 48.9709 26.03C49.6288 26.6877 49.9995 27.5791 50.0021 28.5094V37.7515C49.9995 38.6817 49.6289 39.5731 48.9712 40.2309C48.3135 40.8887 47.4222 41.2595 46.492 41.2622L19.5108 41.2615Z" fill="white"/>
<path d="M46.4891 40.9879H19.5107C18.6525 40.9868 17.8297 40.6454 17.2229 40.0386C16.616 39.4317 16.2746 38.609 16.2735 37.7508V35.0308C16.2735 34.922 16.3168 34.8176 16.3938 34.7406C16.4707 34.6636 16.5751 34.6204 16.684 34.6204C16.7929 34.6204 16.8973 34.6636 16.9742 34.7406C17.0512 34.8176 17.0944 34.922 17.0944 35.0308V37.7508C17.0955 38.3913 17.3504 39.0052 17.8033 39.4581C18.2562 39.911 18.8702 40.1659 19.5107 40.167H46.4891C47.1297 40.1661 47.7437 39.9112 48.1967 39.4583C48.6496 39.0054 48.9044 38.3913 48.9054 37.7508V28.5094C48.9048 27.8688 48.6501 27.2545 48.1971 26.8015C47.7441 26.3485 47.1298 26.0937 46.4891 26.0932H37.2539C36.8548 26.0932 36.472 25.9346 36.1897 25.6524C35.9075 25.3701 35.7489 24.9873 35.7489 24.5882C35.7491 24.489 35.759 24.39 35.7783 24.2927L36.3023 21.6712C36.3228 21.5725 36.3116 21.4699 36.2704 21.378C36.2291 21.286 36.1599 21.2094 36.0726 21.1591C35.9853 21.1088 35.8843 21.0873 35.7841 21.0977C35.6838 21.1081 35.5894 21.1498 35.5143 21.217L31.0814 25.1115C30.3596 25.7462 29.4313 26.0961 28.4702 26.0959H19.5086C18.8681 26.0968 18.254 26.3517 17.8011 26.8046C17.3482 27.2576 17.0933 27.8716 17.0924 28.5121V31.832C17.0924 31.9409 17.0491 32.0453 16.9722 32.1223C16.8952 32.1992 16.7908 32.2425 16.6819 32.2425C16.5731 32.2425 16.4687 32.1992 16.3917 32.1223C16.3147 32.0453 16.2715 31.9409 16.2715 31.832V28.5094C16.2726 27.6512 16.614 26.8285 17.2208 26.2216C17.8277 25.6148 18.6504 25.2734 19.5086 25.2723H28.4702C29.2311 25.272 29.966 24.9948 30.5375 24.4924L34.9704 20.5972C35.1745 20.4167 35.4301 20.3049 35.7011 20.2776C35.9721 20.2503 36.2449 20.3088 36.4809 20.4449C36.7169 20.581 36.9041 20.7878 37.0162 21.0361C37.1283 21.2844 37.1595 21.5616 37.1055 21.8286L36.5815 24.45C36.5619 24.5495 36.5646 24.6521 36.5893 24.7504C36.614 24.8487 36.6601 24.9404 36.7244 25.0188C36.7886 25.0973 36.8694 25.1605 36.9609 25.2041C37.0525 25.2477 37.1525 25.2705 37.2539 25.2709H46.4891C47.3474 25.2718 48.1703 25.6132 48.7771 26.22C49.384 26.8269 49.7254 27.6498 49.7263 28.508V37.7508C49.7254 38.609 49.384 39.4319 48.7771 40.0388C48.1703 40.6457 47.3474 40.987 46.4891 40.9879Z" fill="white"/>
<path d="M39.2565 37.6947C36.9901 37.6947 35.1465 35.6465 35.1465 33.1298C35.1465 30.613 36.9901 28.5648 39.2565 28.5648C41.5229 28.5648 43.3672 30.613 43.3672 33.1298C43.3672 35.6465 41.5229 37.6947 39.2565 37.6947ZM39.2565 29.933C37.7447 29.933 36.5147 31.3696 36.5147 33.1298C36.5147 34.8899 37.746 36.3265 39.2565 36.3265C40.767 36.3265 41.999 34.8899 41.999 33.1298C41.999 31.3696 40.7683 29.933 39.2565 29.933Z" fill="white"/>
<path d="M39.2563 28.8384C37.1411 28.8384 35.4199 30.7635 35.4199 33.1297C35.4199 35.496 37.1411 37.421 39.2563 37.421C41.3715 37.421 43.0934 35.496 43.0934 33.1297C43.0934 30.7635 41.3722 28.8384 39.2563 28.8384ZM39.2563 36.6001C37.5933 36.6001 36.2408 35.0431 36.2408 33.1297C36.2408 31.2163 37.5933 29.6593 39.2563 29.6593C40.9193 29.6593 42.2725 31.2163 42.2725 33.1297C42.2725 35.0431 40.9193 36.6001 39.2563 36.6001Z" fill="white"/>
<path d="M23.3169 37.6947C23.1355 37.6947 22.9615 37.6226 22.8332 37.4943C22.7049 37.366 22.6328 37.192 22.6328 37.0106V29.2489C22.6328 29.0675 22.7049 28.8935 22.8332 28.7652C22.9615 28.6369 23.1355 28.5648 23.3169 28.5648H25.7187C26.4014 28.5668 27.0555 28.8389 27.5383 29.3216C28.021 29.8043 28.293 30.4584 28.295 31.1411V31.6508C28.2932 32.3335 28.0212 32.9877 27.5385 33.4705C27.0557 33.9532 26.4015 34.2252 25.7187 34.227H24.001V37.0106C24.001 37.192 23.9289 37.366 23.8006 37.4943C23.6723 37.6226 23.4983 37.6947 23.3169 37.6947ZM25.7187 32.8589C26.0389 32.8578 26.3457 32.7301 26.5721 32.5036C26.7984 32.2771 26.9259 31.9703 26.9269 31.6501V31.1411C26.9258 30.8208 26.7981 30.514 26.5716 30.2876C26.3452 30.0611 26.0383 29.9334 25.7181 29.9323H24.001V32.8582L25.7187 32.8589Z" fill="white"/>
<path d="M25.7205 28.8385H23.3187C23.2098 28.8385 23.1054 28.8817 23.0284 28.9587C22.9514 29.0356 22.9082 29.14 22.9082 29.2489V37.0106C22.9082 37.1195 22.9514 37.2239 23.0284 37.3008C23.1054 37.3778 23.2098 37.4211 23.3187 37.4211C23.4275 37.4211 23.5319 37.3778 23.6089 37.3008C23.6859 37.2239 23.7291 37.1195 23.7291 37.0106V33.9534H25.7205C26.331 33.9527 26.9162 33.7098 27.3479 33.2782C27.7796 32.8465 28.0224 32.2612 28.0231 31.6508V31.1411C28.0224 30.5306 27.7796 29.9452 27.348 29.5134C26.9163 29.0817 26.331 28.8387 25.7205 28.8378V28.8385ZM27.2022 31.6508C27.2019 32.0436 27.0457 32.4203 26.7678 32.6981C26.49 32.9759 26.1134 33.1321 25.7205 33.1325H23.7291V29.6594H25.7205C26.1133 29.6599 26.4899 29.8162 26.7676 30.094C27.0454 30.3717 27.2017 30.7483 27.2022 31.1411V31.6508Z" fill="white"/>
<path d="M29.8325 37.6947C29.6511 37.6947 29.4771 37.6226 29.3488 37.4943C29.2205 37.366 29.1484 37.192 29.1484 37.0106V29.2489C29.1484 29.0675 29.2205 28.8935 29.3488 28.7652C29.4771 28.6369 29.6511 28.5648 29.8325 28.5648H32.5381C33.1401 28.5664 33.7171 28.8063 34.1428 29.232C34.5685 29.6577 34.8083 30.2346 34.81 30.8367V31.2642C34.8082 31.8662 34.5682 32.4429 34.1425 32.8685C33.7168 33.294 33.14 33.5338 32.5381 33.5354H32.0504L34.5288 36.5769C34.6415 36.7176 34.6941 36.8972 34.6751 37.0764C34.6561 37.2557 34.5671 37.4203 34.4275 37.5343C34.2879 37.6483 34.1089 37.7026 33.9294 37.6854C33.7499 37.6682 33.5845 37.5808 33.4692 37.4423L30.5166 33.8166V37.0106C30.5166 37.192 30.4445 37.366 30.3163 37.4943C30.188 37.6226 30.014 37.6947 29.8325 37.6947ZM32.5381 32.1672C32.7776 32.1663 33.0071 32.0707 33.1764 31.9013C33.3457 31.7319 33.4411 31.5024 33.4418 31.2629V30.836C33.4411 30.5965 33.3457 30.367 33.1764 30.1976C33.0071 30.0281 32.7776 29.9325 32.5381 29.9316H30.5166V32.1672H32.5381Z" fill="white"/>
<path d="M32.5379 28.8384H29.8323C29.7235 28.8384 29.6191 28.8817 29.5421 28.9587C29.4651 29.0356 29.4219 29.14 29.4219 29.2489V37.0106C29.4219 37.1195 29.4651 37.2239 29.5421 37.3008C29.6191 37.3778 29.7235 37.4211 29.8323 37.4211C29.9412 37.4211 30.0456 37.3778 30.1226 37.3008C30.1995 37.2239 30.2428 37.1195 30.2428 37.0106V33.2618H30.4159L33.6803 37.2685C33.7498 37.3505 33.8487 37.4019 33.9558 37.4118C34.0628 37.4217 34.1694 37.3892 34.2528 37.3213C34.3361 37.2533 34.3894 37.1555 34.4014 37.0486C34.4133 36.9418 34.3828 36.8346 34.3165 36.75L31.4748 33.2611H32.5379C33.0678 33.2604 33.5757 33.0495 33.9503 32.6748C34.3249 32.3001 34.5356 31.792 34.5361 31.2622V30.8353C34.5356 30.3054 34.3249 29.7974 33.9503 29.4227C33.5757 29.048 33.0678 28.8371 32.5379 28.8364V28.8384ZM33.7152 31.2642C33.7145 31.5762 33.5902 31.8752 33.3696 32.0957C33.1489 32.3162 32.8499 32.4403 32.5379 32.4409H30.2428V29.6594H32.5379C32.8501 29.6599 33.1493 29.7842 33.37 30.005C33.5907 30.2258 33.7149 30.5252 33.7152 30.8374V31.2642Z" fill="white"/>
</g>
<defs>
<clipPath id="clip0_320_2195">
<rect width="34" height="21.2615" fill="white" transform="translate(16 20)"/>
</clipPath>
</defs>
</svg>
