<svg width="20" height="20" viewBox="0 0 20 20" fill="none" xmlns="http://www.w3.org/2000/svg">
<g clip-path="url(#clip0_90_88)">
<path d="M10 13.125C9.83425 13.125 9.67531 13.0591 9.55811 12.9419C9.44091 12.8247 9.37504 12.6657 9.375 12.5V7.5C9.375 7.33424 9.44085 7.17527 9.55806 7.05806C9.67527 6.94085 9.83424 6.875 10 6.875C10.1658 6.875 10.3247 6.94085 10.4419 7.05806C10.5592 7.17527 10.625 7.33424 10.625 7.5V12.5C10.625 12.6657 10.5591 12.8247 10.4419 12.9419C10.3247 13.0591 10.1657 13.125 10 13.125Z" fill="#0F89CB"/>
<path d="M9.11621 19.4125C8.92474 19.4128 8.73508 19.3753 8.55814 19.3021C8.3812 19.2289 8.22045 19.1215 8.08513 18.986L6.52346 17.4252C6.30345 17.1967 6.16196 16.9041 6.11952 16.5898C6.07708 16.2755 6.13591 15.9558 6.28746 15.6772C6.42931 15.4023 6.48014 15.0895 6.43259 14.7839C6.38505 14.4783 6.24159 14.1958 6.02295 13.977C5.8043 13.7583 5.52179 13.6147 5.21621 13.567C4.91063 13.5194 4.59781 13.57 4.32292 13.7118C4.04448 13.8638 3.72477 13.923 3.41035 13.8807C3.09593 13.8384 2.80323 13.6968 2.57487 13.4766L1.01404 11.9149C0.740846 11.6413 0.587402 11.2705 0.587402 10.8839C0.587402 10.4972 0.740846 10.1264 1.01404 9.85276L9.85271 1.01404C10.1265 0.741207 10.4973 0.588013 10.8838 0.588013C11.2703 0.588013 11.6411 0.741207 11.9149 1.01404L13.4765 2.57487C13.6966 2.80334 13.838 3.09597 13.8805 3.41029C13.9229 3.72462 13.8641 4.04429 13.7125 4.32292C13.5707 4.59775 13.5199 4.91055 13.5674 5.21615C13.615 5.52175 13.7584 5.80433 13.9771 6.02307C14.1957 6.2418 14.4782 6.38538 14.7838 6.43305C15.0894 6.48073 15.4022 6.43003 15.6771 6.28829C15.9555 6.13628 16.2752 6.07712 16.5897 6.11942C16.9041 6.16172 17.1968 6.30328 17.4251 6.52348L18.986 8.08515C19.2592 8.35875 19.4126 8.72959 19.4126 9.11623C19.4126 9.50288 19.2592 9.87372 18.986 10.1473L11.2752 17.8581C11.1579 17.9749 10.9991 18.0404 10.8336 18.0403C10.668 18.0401 10.5093 17.9743 10.3923 17.8572C10.2752 17.7402 10.2094 17.5815 10.2092 17.4159C10.2091 17.2504 10.2746 17.0916 10.3914 16.9743L18.1022 9.26353C18.1215 9.24419 18.1369 9.22123 18.1474 9.19595C18.1578 9.17068 18.1632 9.14359 18.1632 9.11623C18.1632 9.08888 18.1578 9.06179 18.1474 9.03651C18.1369 9.01124 18.1215 8.98828 18.1022 8.96894L16.5413 7.40727C16.4993 7.37645 16.449 7.35915 16.3969 7.3577C16.3449 7.35624 16.2936 7.3707 16.25 7.39913C15.7396 7.66232 15.1588 7.75647 14.5913 7.66799C14.0239 7.5795 13.4993 7.31295 13.0933 6.90684C12.6873 6.50072 12.4209 5.97607 12.3325 5.40864C12.2441 4.84121 12.3384 4.26038 12.6017 3.75004C12.6301 3.70634 12.6444 3.65503 12.6428 3.60297C12.6412 3.55091 12.6237 3.50058 12.5928 3.4587L11.0311 1.89786C11.0118 1.87851 10.9888 1.86316 10.9635 1.85269C10.9383 1.84222 10.9112 1.83683 10.8838 1.83683C10.8565 1.83683 10.8294 1.84222 10.8041 1.85269C10.7788 1.86316 10.7559 1.87851 10.7365 1.89786L1.89779 10.7365C1.87844 10.7559 1.86309 10.7788 1.85262 10.8041C1.84215 10.8294 1.83676 10.8565 1.83676 10.8838C1.83676 10.9112 1.84215 10.9383 1.85262 10.9635C1.86309 10.9888 1.87844 11.0118 1.89779 11.0311L3.45862 12.5928C3.50059 12.6236 3.55097 12.6409 3.60304 12.6424C3.6551 12.6439 3.70638 12.6294 3.75001 12.6009C4.26041 12.3378 4.84126 12.2436 5.40867 12.3321C5.97607 12.4206 6.50067 12.6871 6.90669 13.0932C7.31272 13.4994 7.57915 14.024 7.66751 14.5914C7.75587 15.1589 7.66159 15.7397 7.39828 16.25C7.36995 16.2937 7.35562 16.345 7.35722 16.3971C7.35882 16.4492 7.37627 16.4995 7.40723 16.5414L8.9689 18.1023C8.98824 18.1216 9.0112 18.137 9.03647 18.1474C9.06175 18.1579 9.08884 18.1633 9.11619 18.1633C9.14355 18.1633 9.17064 18.1579 9.19591 18.1474C9.22119 18.137 9.24415 18.1216 9.26349 18.1023C9.32148 18.044 9.39038 17.9978 9.46625 17.9663C9.54212 17.9347 9.62346 17.9184 9.70564 17.9183C9.78781 17.9183 9.86919 17.9344 9.94512 17.9658C10.021 17.9972 10.09 18.0433 10.1481 18.1014C10.2062 18.1595 10.2523 18.2285 10.2837 18.3044C10.3151 18.3803 10.3313 18.4617 10.3312 18.5439C10.3311 18.6261 10.3148 18.7074 10.2833 18.7833C10.2517 18.8591 10.2055 18.928 10.1473 18.986C10.012 19.1215 9.85122 19.2289 9.67428 19.3021C9.49734 19.3753 9.30769 19.4128 9.11621 19.4125Z" fill="#0F89CB"/>
<path d="M7.64339 10.2442C8.10363 10.2442 8.47673 9.87109 8.47673 9.41085C8.47673 8.95061 8.10363 8.57751 7.64339 8.57751C7.18315 8.57751 6.81006 8.95061 6.81006 9.41085C6.81006 9.87109 7.18315 10.2442 7.64339 10.2442Z" fill="#0F89CB"/>
<path d="M12.3568 11.4225C12.817 11.4225 13.1901 11.0494 13.1901 10.5892C13.1901 10.129 12.817 9.75586 12.3568 9.75586C11.8965 9.75586 11.5234 10.129 11.5234 10.5892C11.5234 11.0494 11.8965 11.4225 12.3568 11.4225Z" fill="#0F89CB"/>
</g>
<defs>
<clipPath id="clip0_90_88">
<rect width="20" height="20" fill="white"/>
</clipPath>
</defs>
</svg>
