<svg width="20" height="20" viewBox="0 0 20 20" fill="none" xmlns="http://www.w3.org/2000/svg">
<path d="M16.1458 4.16665L11.5625 1.51998C11.0794 1.2707 10.5436 1.14062 10 1.14062C9.45636 1.14063 8.92061 1.2707 8.4375 1.51998L3.81667 4.18998C1.98333 5.42832 1.875 5.61832 1.875 7.59415V12.4058C1.875 14.3816 1.98417 14.5725 3.85417 15.8333L8.4375 18.48C8.91736 18.7378 9.45532 18.8684 10 18.8591C10.5447 18.8685 11.0827 18.738 11.5625 18.48L16.1833 15.8133C18.0167 14.575 18.125 14.385 18.125 12.4091V7.59415C18.125 5.61832 18.0158 5.42832 16.1458 4.16665ZM16.875 12.4058C16.875 13.835 16.875 13.835 15.5208 14.7508L10.9375 17.3975C10.6449 17.5379 10.3245 17.6108 10 17.6108C9.67547 17.6108 9.35508 17.5379 9.0625 17.3975L4.51667 14.7741C3.125 13.8333 3.125 13.8333 3.125 12.4058V7.59415C3.125 6.16665 3.125 6.16665 4.47917 5.24998L9.0625 2.60332C9.35219 2.45477 9.67456 2.38141 10 2.38998C10.3254 2.38126 10.6477 2.45432 10.9375 2.60248L15.4833 5.22582C16.875 6.16665 16.875 6.16665 16.875 7.59415V12.4058Z" fill="#0F89CB"/>
<path d="M10 6.875C9.38193 6.875 8.77775 7.05828 8.26384 7.40166C7.74994 7.74504 7.3494 8.2331 7.11288 8.80411C6.87635 9.37513 6.81447 10.0035 6.93505 10.6097C7.05563 11.2158 7.35325 11.7727 7.79029 12.2097C8.22733 12.6467 8.78415 12.9444 9.39034 13.065C9.99654 13.1855 10.6249 13.1236 11.1959 12.8871C11.7669 12.6506 12.255 12.2501 12.5983 11.7362C12.9417 11.2223 13.125 10.6181 13.125 10C13.1239 9.17154 12.7943 8.37732 12.2085 7.79151C11.6227 7.2057 10.8285 6.8761 10 6.875ZM10 11.875C9.62916 11.875 9.26665 11.765 8.95831 11.559C8.64996 11.353 8.40964 11.0601 8.26773 10.7175C8.12581 10.3749 8.08868 9.99792 8.16103 9.63421C8.23338 9.27049 8.41195 8.9364 8.67418 8.67417C8.9364 8.41195 9.27049 8.23337 9.63421 8.16103C9.99792 8.08868 10.3749 8.12581 10.7175 8.26773C11.0601 8.40964 11.353 8.64996 11.559 8.95831C11.765 9.26665 11.875 9.62916 11.875 10C11.8743 10.4971 11.6766 10.9736 11.3251 11.3251C10.9736 11.6766 10.4971 11.8743 10 11.875Z" fill="#0F89CB"/>
</svg>
