<svg width="20" height="21" viewBox="0 0 20 21" fill="none" xmlns="http://www.w3.org/2000/svg">
<path d="M11.7958 15.3686C11.692 15.3685 11.5899 15.3424 11.4987 15.2929L6.10241 12.3722C5.95672 12.2932 5.84838 12.1596 5.80123 12.0007C5.75407 11.8418 5.77195 11.6707 5.85095 11.525C5.92994 11.3793 6.06357 11.271 6.22245 11.2238C6.38132 11.1767 6.55242 11.1946 6.69811 11.2736L12.0944 14.1943C12.2166 14.2606 12.3132 14.3658 12.369 14.4932C12.4247 14.6206 12.4363 14.7629 12.402 14.8977C12.3678 15.0324 12.2895 15.1519 12.1797 15.2372C12.0699 15.3225 11.9348 15.3688 11.7958 15.3686Z" fill="white"/>
<path d="M8.25936 9.28138C8.1185 9.28151 7.98173 9.23405 7.87123 9.14671C7.76072 9.05937 7.68296 8.93726 7.65056 8.80018C7.61815 8.6631 7.63299 8.5191 7.69269 8.39152C7.75238 8.26394 7.85341 8.16026 7.97941 8.0973L13.3212 5.43055C13.3947 5.39356 13.4747 5.37143 13.5567 5.36543C13.6387 5.35944 13.7211 5.36969 13.7992 5.39561C13.8773 5.42153 13.9494 5.4626 14.0116 5.51647C14.0737 5.57034 14.1246 5.63594 14.1614 5.70953C14.1981 5.78311 14.2199 5.86322 14.2257 5.94526C14.2314 6.02731 14.2208 6.10967 14.1946 6.18764C14.1684 6.2656 14.1271 6.33763 14.073 6.39959C14.019 6.46155 13.9532 6.51222 13.8795 6.5487L8.53768 9.21554C8.45129 9.25884 8.35599 9.28138 8.25936 9.28138Z" fill="white"/>
<path d="M4.16699 13.8313C3.54893 13.8313 2.94474 13.648 2.43084 13.3046C1.91693 12.9613 1.51639 12.4732 1.27987 11.9022C1.04335 11.3312 0.981461 10.7028 1.10204 10.0966C1.22262 9.49045 1.52025 8.93363 1.95728 8.49659C2.39432 8.05955 2.95115 7.76192 3.55734 7.64135C4.16353 7.52077 4.79186 7.58265 5.36288 7.81918C5.9339 8.0557 6.42196 8.45624 6.76534 8.97014C7.10872 9.48405 7.29199 10.0882 7.29199 10.7063C7.29095 11.5348 6.96138 12.329 6.37555 12.9149C5.78972 13.5007 4.99547 13.8303 4.16699 13.8313ZM4.16699 8.8313C3.79615 8.8313 3.43364 8.94127 3.1253 9.14729C2.81696 9.35332 2.57663 9.64616 2.43472 9.98877C2.29281 10.3314 2.25567 10.7084 2.32802 11.0721C2.40037 11.4358 2.57894 11.7699 2.84117 12.0321C3.10339 12.2943 3.43748 12.4729 3.8012 12.5453C4.16491 12.6176 4.54191 12.5805 4.88452 12.4386C5.22714 12.2967 5.51997 12.0563 5.726 11.748C5.93203 11.4397 6.04199 11.0771 6.04199 10.7063C6.04131 10.2092 5.84355 9.73271 5.49207 9.38123C5.14058 9.02974 4.66407 8.83198 4.16699 8.8313Z" fill="white"/>
<path d="M15.834 7.99805C15.2159 7.99805 14.6117 7.81477 14.0978 7.47139C13.5839 7.12801 13.1834 6.63995 12.9469 6.06893C12.7103 5.49791 12.6485 4.86958 12.769 4.26339C12.8896 3.6572 13.1872 3.10038 13.6243 2.66334C14.0613 2.2263 14.6181 1.92867 15.2243 1.80809C15.8305 1.68752 16.4589 1.7494 17.0299 1.98592C17.6009 2.22245 18.0889 2.62299 18.4323 3.13689C18.7757 3.65079 18.959 4.25498 18.959 4.87305C18.9579 5.70153 18.6284 6.49578 18.0425 7.0816C17.4567 7.66743 16.6625 7.997 15.834 7.99805ZM15.834 2.99805C15.4631 2.99805 15.1006 3.10802 14.7923 3.31404C14.484 3.52007 14.2436 3.81291 14.1017 4.15552C13.9598 4.49813 13.9227 4.87513 13.995 5.23884C14.0674 5.60256 14.2459 5.93665 14.5082 6.19887C14.7704 6.4611 15.1045 6.63967 15.4682 6.71202C15.8319 6.78437 16.2089 6.74724 16.5515 6.60532C16.8941 6.46341 17.187 6.22308 17.393 5.91474C17.599 5.6064 17.709 5.24389 17.709 4.87305C17.7083 4.37598 17.5105 3.89946 17.1591 3.54798C16.8076 3.19649 16.3311 2.99873 15.834 2.99805Z" fill="white"/>
<path d="M15.834 19.6648C15.2159 19.6648 14.6117 19.4815 14.0978 19.1381C13.5839 18.7948 13.1834 18.3067 12.9469 17.7357C12.7103 17.1647 12.6485 16.5363 12.769 15.9301C12.8896 15.3239 13.1872 14.7671 13.6243 14.3301C14.0613 13.893 14.6181 13.5954 15.2243 13.4748C15.8305 13.3543 16.4589 13.4161 17.0299 13.6527C17.6009 13.8892 18.0889 14.2897 18.4323 14.8036C18.7757 15.3175 18.959 15.9217 18.959 16.5398C18.9579 17.3683 18.6284 18.1625 18.0425 18.7484C17.4567 19.3342 16.6625 19.6638 15.834 19.6648ZM15.834 14.6648C15.4631 14.6648 15.1006 14.7748 14.7923 14.9808C14.484 15.1868 14.2436 15.4797 14.1017 15.8223C13.9598 16.1649 13.9227 16.5419 13.995 16.9056C14.0674 17.2693 14.2459 17.6034 14.5082 17.8656C14.7704 18.1278 15.1045 18.3064 15.4682 18.3788C15.8319 18.4511 16.2089 18.414 16.5515 18.2721C16.8941 18.1302 17.187 17.8898 17.393 17.5815C17.599 17.2731 17.709 16.9106 17.709 16.5398C17.7083 16.0427 17.5105 15.5662 17.1591 15.2147C16.8076 14.8632 16.3311 14.6655 15.834 14.6648Z" fill="white"/>
</svg>
