<svg width="75" height="76" viewBox="0 0 75 76" fill="none" xmlns="http://www.w3.org/2000/svg">
<circle cx="37.7174" cy="38.0637" r="29.0533" fill="white" fill-opacity="0.35"/>
<circle cx="37.7176" cy="38.0637" r="37.1883" fill="white" fill-opacity="0.2"/>
<g clip-path="url(#clip0_320_2066)">
<path d="M38.2826 43.9176C44.4845 43.9176 49.5301 38.872 49.5301 32.6701C48.9646 17.7693 27.5984 17.7734 27.0352 32.6702C27.0352 38.8719 32.0808 43.9176 38.2826 43.9176ZM38.2826 23.4355C43.3746 23.4355 47.5172 27.5781 47.5172 32.6701C47.053 44.9042 29.5104 44.9009 29.048 32.6699C29.048 27.5781 33.1906 23.4355 38.2826 23.4355Z" fill="white"/>
<path d="M35.0833 37.8526C35.0929 37.8582 35.5642 38.1551 36.0878 37.856L43.6338 33.5439C44.3051 33.1711 44.3049 32.1689 43.6338 31.7963L36.0878 27.4842C35.7764 27.3062 35.3937 27.3075 35.0833 27.4876C34.773 27.6677 34.582 27.9993 34.582 28.3581V36.9821C34.582 37.3409 34.773 37.6725 35.0833 37.8526ZM36.5949 30.0923L41.1059 32.6701L36.5949 35.2478V30.0923Z" fill="white"/>
<path d="M24.5379 49.9897H23.999C22.8313 49.946 22.8349 48.2727 23.999 48.2295H25.3465C26.6804 48.18 26.6794 46.2657 25.3465 46.2167H23.999C20.1861 46.3513 20.1479 51.8512 23.999 52.0025H24.5379C25.7053 52.0459 25.7025 53.7193 24.5379 53.7627H23.1905C21.8565 53.8122 21.8575 55.7265 23.1905 55.7755H24.5379C28.3701 55.631 28.3711 50.1305 24.5379 49.9897Z" fill="white"/>
<path d="M54.4527 46.2167H50.1407C48.8068 46.2662 48.8078 48.1805 50.1407 48.2295H51.2902V54.7692C51.3398 56.1031 53.2541 56.1021 53.3031 54.7692V48.2295H54.4527C55.7867 48.18 55.7857 46.2657 54.4527 46.2167Z" fill="white"/>
<path d="M48.4519 49.3791C48.4519 47.6353 47.0333 46.2167 45.2895 46.2167H43.6725C43.1166 46.2167 42.666 46.6673 42.666 47.2231V54.7692C42.7155 56.1031 44.6298 56.1021 44.6789 54.7692V53.4259L46.7338 55.4808C47.1268 55.8738 47.7641 55.8738 48.1571 55.4808C48.5502 55.0877 48.5502 54.4505 48.1571 54.0575L46.4302 52.3305C47.3131 51.9897 48.4519 51.0111 48.4519 49.3791ZM45.2895 50.5287H44.6789V48.2295H45.2895C46.8078 48.2847 46.8168 50.4703 45.2895 50.5287Z" fill="white"/>
<path d="M32.8922 46.2167H28.5801C27.2462 46.2662 27.2472 48.1805 28.5801 48.2295H29.7297V54.7692C29.7792 56.1031 31.6935 56.1021 31.7426 54.7692V48.2295H32.8921C34.2261 48.18 34.2251 46.2657 32.8922 46.2167Z" fill="white"/>
<path d="M37.7445 46.2167C36.0007 46.2167 34.582 47.6353 34.582 49.3791V54.7691C34.6315 56.103 36.5459 56.102 36.5949 54.7691V52.5415H38.8941V54.7691C38.9436 56.103 40.8579 56.102 40.9069 54.7691V49.3791C40.9069 47.6353 39.4882 46.2167 37.7445 46.2167ZM38.894 50.5287H36.5948V49.3791C36.6528 47.8558 38.8366 47.8569 38.894 49.3791V50.5287Z" fill="white"/>
</g>
<defs>
<clipPath id="clip0_320_2066">
<rect width="34.3276" height="34.3276" fill="white" transform="translate(21.125 21.472)"/>
</clipPath>
</defs>
</svg>
