<svg width="20" height="21" viewBox="0 0 20 21" fill="none" xmlns="http://www.w3.org/2000/svg">
<path d="M12.5 15.0814C12.4179 15.0815 12.3366 15.0654 12.2608 15.0339C12.1849 15.0025 12.1161 14.9564 12.0581 14.8983L9.55811 12.3983C9.50005 12.3403 9.45399 12.2714 9.42257 12.1956C9.39115 12.1197 9.37499 12.0385 9.375 11.9564V8.62305C9.375 8.45729 9.44085 8.29832 9.55806 8.18111C9.67527 8.0639 9.83424 7.99805 10 7.99805C10.1658 7.99805 10.3247 8.0639 10.4419 8.18111C10.5592 8.29832 10.625 8.45729 10.625 8.62305V11.6976L12.9419 14.0145C13.0293 14.1019 13.0888 14.2133 13.1129 14.3345C13.137 14.4557 13.1246 14.5814 13.0773 14.6955C13.03 14.8097 12.9499 14.9073 12.8472 14.976C12.7444 15.0447 12.6236 15.0814 12.5 15.0814Z" fill="white"/>
<path d="M10.0003 19.6647C8.19569 19.6644 6.44833 19.0311 5.06262 17.875C3.67692 16.7189 2.74069 15.1133 2.41702 13.3379C2.09335 11.5625 2.40275 9.72983 3.29133 8.1591C4.17991 6.58837 5.59135 5.37913 7.2798 4.74202C7.43493 4.68377 7.60684 4.68948 7.75776 4.75789C7.90869 4.82631 8.02629 4.95183 8.08473 5.10688C8.14318 5.26194 8.13768 5.43385 8.06946 5.58487C8.00124 5.73588 7.87587 5.85363 7.72089 5.91227C6.21127 6.48051 4.96878 7.59284 4.23761 9.03063C3.50645 10.4684 3.33949 12.1277 3.76956 13.6823C4.19962 15.237 5.1956 16.5745 6.56175 17.4321C7.9279 18.2897 9.56541 18.6053 11.1524 18.3169C12.7395 18.0286 14.1612 17.157 15.1383 15.8736C16.1154 14.5902 16.5771 12.9877 16.4327 11.3812C16.2883 9.77461 15.5483 8.28016 14.358 7.19154C13.1678 6.10291 11.6134 5.49884 10.0003 5.49805C9.83458 5.49805 9.67561 5.4322 9.5584 5.31499C9.44119 5.19778 9.37534 5.03881 9.37534 4.87305C9.37534 4.70729 9.44119 4.54832 9.5584 4.43111C9.67561 4.31389 9.83458 4.24805 10.0003 4.24805C12.0447 4.24805 14.0054 5.06017 15.451 6.50577C16.8966 7.95136 17.7087 9.912 17.7087 11.9564C17.7087 14.0008 16.8966 15.9614 15.451 17.407C14.0054 18.8526 12.0447 19.6647 10.0003 19.6647Z" fill="white"/>
<path d="M12.0837 2.99805H7.91699C7.75123 2.99805 7.59226 2.9322 7.47505 2.81499C7.35784 2.69778 7.29199 2.53881 7.29199 2.37305C7.29199 2.20729 7.35784 2.04832 7.47505 1.93111C7.59226 1.81389 7.75123 1.74805 7.91699 1.74805H12.0837C12.2494 1.74805 12.4084 1.81389 12.5256 1.93111C12.6428 2.04832 12.7087 2.20729 12.7087 2.37305C12.7087 2.53881 12.6428 2.69778 12.5256 2.81499C12.4084 2.9322 12.2494 2.99805 12.0837 2.99805Z" fill="white"/>
<path d="M10 5.49805C9.83425 5.498 9.67531 5.43214 9.55811 5.31494C9.44091 5.19774 9.37504 5.03879 9.375 4.87305V2.37305C9.375 2.20729 9.44085 2.04832 9.55806 1.93111C9.67527 1.81389 9.83424 1.74805 10 1.74805C10.1658 1.74805 10.3247 1.81389 10.4419 1.93111C10.5592 2.04832 10.625 2.20729 10.625 2.37305V4.87305C10.625 5.03879 10.5591 5.19774 10.4419 5.31494C10.3247 5.43214 10.1657 5.498 10 5.49805Z" fill="white"/>
</svg>
