<svg width="20" height="20" viewBox="0 0 20 20" fill="none" xmlns="http://www.w3.org/2000/svg">
<path fill-rule="evenodd" clip-rule="evenodd" d="M2.5 11.875C2.84518 11.875 3.125 12.1548 3.125 12.5C3.125 13.6962 3.12633 14.5304 3.21096 15.1599C3.29317 15.7714 3.44354 16.0952 3.67418 16.3258C3.90481 16.5565 4.22863 16.7068 4.8401 16.7891C5.46956 16.8737 6.30383 16.875 7.5 16.875H12.5C13.6962 16.875 14.5304 16.8737 15.1599 16.7891C15.7714 16.7068 16.0952 16.5565 16.3258 16.3258C16.5565 16.0952 16.7068 15.7714 16.7891 15.1599C16.8737 14.5304 16.875 13.6962 16.875 12.5C16.875 12.1548 17.1548 11.875 17.5 11.875C17.8452 11.875 18.125 12.1548 18.125 12.5V12.5458C18.125 13.6854 18.125 14.604 18.0279 15.3265C17.9271 16.0766 17.7113 16.7081 17.2097 17.2097C16.7081 17.7113 16.0766 17.9271 15.3265 18.0279C14.604 18.125 13.6854 18.125 12.5458 18.125H7.45428C6.31462 18.125 5.39602 18.125 4.67354 18.0279C3.92345 17.9271 3.29189 17.7113 2.79029 17.2097C2.28869 16.7081 2.07295 16.0766 1.9721 15.3265C1.87497 14.604 1.87498 13.6854 1.875 12.5458C1.875 12.5305 1.875 12.5152 1.875 12.5C1.875 12.1548 2.15483 11.875 2.5 11.875Z" fill="#0F89CB"/>
<path fill-rule="evenodd" clip-rule="evenodd" d="M9.99967 13.9583C9.82417 13.9583 9.65684 13.8845 9.53842 13.755L6.20509 10.1092C5.97217 9.8544 5.98984 9.45907 6.24459 9.22615C6.49934 8.99323 6.89467 9.01093 7.12759 9.26568L9.37467 11.7234L9.37467 2.49992C9.37467 2.15475 9.65451 1.87492 9.99967 1.87492C10.3448 1.87492 10.6247 2.15475 10.6247 2.49992L10.6247 11.7234L12.8717 9.26568C13.1046 9.01093 13.5 8.99323 13.7547 9.22615C14.0095 9.45907 14.0272 9.8544 13.7943 10.1092L10.4609 13.755C10.3425 13.8845 10.1752 13.9583 9.99967 13.9583Z" fill="#0F89CB"/>
</svg>
