<svg width="20" height="20" viewBox="0 0 20 20" fill="none" xmlns="http://www.w3.org/2000/svg">
<path d="M17.5002 13.5417H16.9402C16.8677 13.22 16.7393 12.92 16.5677 12.65L16.9643 12.2525C17.2085 12.0084 17.2085 11.6125 16.9643 11.3684C16.7202 11.1242 16.3243 11.1242 16.0802 11.3684L15.6835 11.7659C15.4127 11.5942 15.1135 11.4659 14.7918 11.3934V10.8334C14.7918 10.4884 14.5118 10.2084 14.1668 10.2084C13.8218 10.2084 13.5418 10.4884 13.5418 10.8334V11.3934C13.2202 11.4659 12.921 11.5942 12.6502 11.7659L12.2535 11.3684C12.0093 11.1242 11.6135 11.1242 11.3693 11.3684C11.1252 11.6125 11.1252 12.0084 11.3693 12.2525L11.766 12.65C11.5943 12.9209 11.466 13.22 11.3935 13.5417H10.8335C10.4885 13.5417 10.2085 13.8217 10.2085 14.1667C10.2085 14.5117 10.4885 14.7917 10.8335 14.7917H11.3935C11.466 15.1134 11.5943 15.4134 11.766 15.6834L11.3693 16.0809C11.1252 16.325 11.1252 16.7209 11.3693 16.965C11.491 17.0867 11.651 17.1484 11.811 17.1484C11.971 17.1484 12.131 17.0875 12.2527 16.965L12.6493 16.5675C12.9202 16.7392 13.2193 16.8675 13.541 16.94V17.5C13.541 17.845 13.821 18.125 14.166 18.125C14.511 18.125 14.791 17.845 14.791 17.5V16.94C15.1127 16.8675 15.4118 16.7392 15.6827 16.5675L16.0793 16.965C16.201 17.0867 16.361 17.1484 16.521 17.1484C16.681 17.1484 16.841 17.0875 16.9627 16.965C17.2068 16.7209 17.2068 16.325 16.9627 16.0809L16.566 15.6834C16.7377 15.4125 16.866 15.1134 16.9385 14.7917H17.4985C17.8435 14.7917 18.1235 14.5117 18.1235 14.1667C18.1235 13.8217 17.8435 13.5417 17.4985 13.5417H17.5002ZM15.2918 15.2917C15.2868 15.2967 15.2852 15.3034 15.281 15.3084C14.9927 15.5892 14.601 15.7642 14.1677 15.7642C13.7343 15.7642 13.3418 15.5892 13.0543 15.3084C13.0493 15.3034 13.0477 15.2967 13.0435 15.2917C13.0393 15.2867 13.0318 15.285 13.0268 15.2809C12.746 14.9925 12.571 14.6 12.571 14.1675C12.571 13.735 12.746 13.3425 13.0268 13.0542C13.0318 13.0492 13.0385 13.0484 13.0435 13.0434C13.0485 13.0384 13.0502 13.0317 13.0543 13.0267C13.3427 12.7459 13.7343 12.5709 14.1677 12.5709C14.601 12.5709 14.9935 12.7459 15.281 13.0267C15.286 13.0317 15.2877 13.0384 15.2918 13.0434C15.296 13.0484 15.3035 13.05 15.3085 13.0542C15.5893 13.3425 15.7643 13.7342 15.7643 14.1675C15.7643 14.6009 15.5893 14.9934 15.3085 15.2809C15.3035 15.2859 15.2968 15.2867 15.2918 15.2917Z" fill="#0F89CB"/>
<path d="M10.0002 9.79167C7.81766 9.79167 6.04183 8.01583 6.04183 5.83333C6.04183 3.65083 7.81766 1.875 10.0002 1.875C12.1827 1.875 13.9585 3.65083 13.9585 5.83333C13.9585 8.01583 12.1827 9.79167 10.0002 9.79167ZM10.0002 3.125C8.50683 3.125 7.29183 4.34 7.29183 5.83333C7.29183 7.32667 8.50683 8.54167 10.0002 8.54167C11.4935 8.54167 12.7085 7.32667 12.7085 5.83333C12.7085 4.34 11.4935 3.125 10.0002 3.125ZM9.76683 17.5C9.76683 17.155 9.48683 16.875 9.14183 16.875H5.00016C4.426 16.875 3.9585 16.4075 3.9585 15.8333C3.9585 13.88 5.54766 12.2917 7.50016 12.2917H9.16683C9.51183 12.2917 9.79183 12.0117 9.79183 11.6667C9.79183 11.3217 9.51183 11.0417 9.16683 11.0417H7.50016C4.8585 11.0417 2.7085 13.1908 2.7085 15.8333C2.7085 17.0975 3.736 18.125 5.00016 18.125H9.14183C9.48683 18.125 9.76683 17.845 9.76683 17.5Z" fill="#0F89CB"/>
</svg>
